<svg width="164" height="164" viewBox="0 0 164 164" fill="none" xmlns="http://www.w3.org/2000/svg">
<path d="M135.372 33.4429H144.353V29.6479H135.372V33.4429Z" fill="#DBDBDB"/>
<path d="M140.381 28.6606H149.361V24.8657H140.381V28.6606Z" fill="#EBEBEB"/>
<path d="M14.6354 27.88H23.616V24.085H14.6354V27.88Z" fill="#DBDBDB"/>
<path d="M19.6439 98.4229H28.6246V94.628H19.6439V98.4229Z" fill="#EBEBEB"/>
<path d="M63.7993 15.252L72.7799 15.252V11.457H63.7993V15.252Z" fill="#EBEBEB"/>
<path d="M24.6492 131.292H33.6299V127.497H24.6492V131.292Z" fill="#DBDBDB"/>
<path d="M14.6354 93.6374H23.616V89.8425H14.6354V93.6374Z" fill="#EBEBEB"/>
<path d="M128.779 145.527H137.76V141.732H128.779V145.527Z" fill="#87C159"/>
<path d="M128.779 136.008H137.76V132.214H128.779V136.008Z" fill="#EBEBEB"/>
<path d="M123.774 140.745H132.755V136.95H123.774V140.745Z" fill="#87C159"/>
<path d="M133.781 140.745H142.762V136.95H133.781V140.745Z" fill="#DBDBDB"/>
<path d="M138 102.795H146.981V99H138V102.795Z" fill="#DBDBDB"/>
<path d="M19.6439 136.008H28.6246V132.214H19.6439V136.008Z" fill="#EBEBEB"/>
<path d="M24.6492 140.745H33.6299V136.95H24.6492V140.745Z" fill="#EBEBEB"/>
<path d="M138.783 145.527H147.764V141.732H138.783V145.527Z" fill="#EBEBEB"/>
<path d="M143.133 98.4229H152.113V94.628H143.133V98.4229Z" fill="#EBEBEB"/>
<path d="M146.977 25.2101C146.846 25.8122 146.587 26.3791 146.217 26.8721C145.848 27.3651 145.376 27.7727 144.835 28.0669C144.835 28.0669 144.864 26.6073 145.311 26.0694C145.757 25.5315 146.977 25.2101 146.977 25.2101Z" fill="#EBEBEB"/>
<path d="M111.176 33.6069H52.8244V123.482H111.176V33.6069Z" fill="white"/>
<path d="M113.16 125.45H50.8564V31.6422H113.16V125.45ZM54.8088 121.514H109.224V35.5782H54.7924L54.8088 121.514Z" fill="#37474F"/>
<path d="M111.176 67.5975H52.8244V69.5852H111.176V67.5975Z" fill="#37474F"/>
<path d="M111.176 52.7785H52.8244V54.7662H111.176V52.7785Z" fill="#37474F"/>
<path d="M95.202 37.3723V68.1846H97.006V37.3723H95.202Z" fill="#37474F"/>
<path d="M81.098 37.3723V68.1846H82.902V37.3723H81.098Z" fill="#37474F"/>
<path d="M66.994 37.3723V68.1846H68.798V37.3723H66.994Z" fill="#37474F"/>
<path d="M114.83 31.3109H49.1705V38.5072H114.83V31.3109Z" fill="#37474F"/>
<path d="M114.83 31.3109H49.1705V36.3293H114.83V31.3109Z" fill="#263238"/>
<path d="M117.312 27.7127H46.6908V34.909H117.312V27.7127Z" fill="#37474F"/>
<path d="M50.8564 38.5105H21.6841V125.45H50.8564V38.5105Z" fill="#DBDBDB"/>
<path d="M48.2718 41.4231H24.2687V43.0238H48.2718V41.4231Z" fill="#C7C7C7"/>
<path d="M48.2718 44.3686H24.2687V45.9692H48.2718V44.3686Z" fill="#C7C7C7"/>
<path d="M48.2718 47.314H24.2687V48.9146H48.2718V47.314Z" fill="#C7C7C7"/>
<path d="M48.2718 50.2562H24.2687V51.8568H48.2718V50.2562Z" fill="#C7C7C7"/>
<path d="M48.2718 53.2016H24.2687V54.8022H48.2718V53.2016Z" fill="#C7C7C7"/>
<path d="M48.2718 56.147H24.2687V57.7477H48.2718V56.147Z" fill="#C7C7C7"/>
<path d="M48.2718 59.0925H24.2687V60.6931H48.2718V59.0925Z" fill="#C7C7C7"/>
<path d="M48.2718 62.0379H24.2687V63.6386H48.2718V62.0379Z" fill="#C7C7C7"/>
<path d="M48.2718 64.9834H24.2687V66.584H48.2718V64.9834Z" fill="#C7C7C7"/>
<path d="M48.2718 67.9288H24.2687V69.5294H48.2718V67.9288Z" fill="#C7C7C7"/>
<path d="M48.2718 70.871H24.2687V72.4716H48.2718V70.871Z" fill="#C7C7C7"/>
<path d="M48.2718 73.8164H24.2687V75.417H48.2718V73.8164Z" fill="#C7C7C7"/>
<path d="M48.2718 79.7073H24.2687V81.3079H48.2718V79.7073Z" fill="#C7C7C7"/>
<path d="M48.2718 82.6527H24.2687V84.2533H48.2718V82.6527Z" fill="#C7C7C7"/>
<path d="M48.2718 85.5982H24.2687V87.1988H48.2718V85.5982Z" fill="#C7C7C7"/>
<path d="M48.2718 88.5436H24.2687V90.1442H48.2718V88.5436Z" fill="#C7C7C7"/>
<path d="M48.2718 91.4858H24.2687V93.0864H48.2718V91.4858Z" fill="#C7C7C7"/>
<path d="M48.2718 94.4312H24.2687V96.0318H48.2718V94.4312Z" fill="#C7C7C7"/>
<path d="M48.2718 97.3766H24.2687V98.9773H48.2718V97.3766Z" fill="#C7C7C7"/>
<path d="M48.2718 100.322H24.2687V101.923H48.2718V100.322Z" fill="#C7C7C7"/>
<path d="M48.2718 103.268H24.2687V104.868H48.2718V103.268Z" fill="#C7C7C7"/>
<path d="M48.2718 106.213H24.2687V107.814H48.2718V106.213Z" fill="#C7C7C7"/>
<path d="M48.2718 109.158H24.2687V110.759H48.2718V109.158Z" fill="#C7C7C7"/>
<path d="M48.2718 112.104H24.2687V113.704H48.2718V112.104Z" fill="#C7C7C7"/>
<path d="M48.2718 115.046H24.2687V116.647H48.2718V115.046Z" fill="#C7C7C7"/>
<path d="M48.2718 117.991H24.2687V119.592H48.2718V117.991Z" fill="#C7C7C7"/>
<path d="M48.2718 120.937H24.2687V122.538H48.2718V120.937Z" fill="#C7C7C7"/>
<path d="M142.316 38.5105H113.144V125.45H142.316V38.5105Z" fill="#DBDBDB"/>
<path d="M139.731 41.4231H115.728V43.0238H139.731V41.4231Z" fill="#C7C7C7"/>
<path d="M139.731 44.3686H115.728V45.9692H139.731V44.3686Z" fill="#C7C7C7"/>
<path d="M139.731 47.314H115.728V48.9146H139.731V47.314Z" fill="#C7C7C7"/>
<path d="M139.731 50.2562H115.728V51.8568H139.731V50.2562Z" fill="#C7C7C7"/>
<path d="M139.731 53.2016H115.728V54.8022H139.731V53.2016Z" fill="#C7C7C7"/>
<path d="M139.731 56.147H115.728V57.7477H139.731V56.147Z" fill="#C7C7C7"/>
<path d="M139.731 59.0925H115.728V60.6931H139.731V59.0925Z" fill="#C7C7C7"/>
<path d="M139.731 62.0379H115.728V63.6386H139.731V62.0379Z" fill="#C7C7C7"/>
<path d="M139.731 64.9834H115.728V66.584H139.731V64.9834Z" fill="#C7C7C7"/>
<path d="M139.731 67.9288H115.728V69.5294H139.731V67.9288Z" fill="#C7C7C7"/>
<path d="M139.731 70.871H115.728V72.4716H139.731V70.871Z" fill="#C7C7C7"/>
<path d="M139.731 73.8164H115.728V75.417H139.731V73.8164Z" fill="#C7C7C7"/>
<path d="M139.731 79.7073H115.728V81.3079H139.731V79.7073Z" fill="#C7C7C7"/>
<path d="M139.731 82.6527H115.728V84.2533H139.731V82.6527Z" fill="#C7C7C7"/>
<path d="M139.731 85.5982H115.728V87.1988H139.731V85.5982Z" fill="#C7C7C7"/>
<path d="M139.731 88.5436H115.728V90.1442H139.731V88.5436Z" fill="#C7C7C7"/>
<path d="M139.731 91.4858H115.728V93.0864H139.731V91.4858Z" fill="#C7C7C7"/>
<path d="M139.731 94.4312H115.728V96.0318H139.731V94.4312Z" fill="#C7C7C7"/>
<path d="M139.731 97.3766H115.728V98.9773H139.731V97.3766Z" fill="#C7C7C7"/>
<path d="M139.731 100.322H115.728V101.923H139.731V100.322Z" fill="#C7C7C7"/>
<path d="M139.731 103.268H115.728V104.868H139.731V103.268Z" fill="#C7C7C7"/>
<path d="M139.731 106.213H115.728V107.814H139.731V106.213Z" fill="#C7C7C7"/>
<path d="M139.731 109.158H115.728V110.759H139.731V109.158Z" fill="#C7C7C7"/>
<path d="M139.731 112.104H115.728V113.704H139.731V112.104Z" fill="#C7C7C7"/>
<path d="M139.731 115.046H115.728V116.647H139.731V115.046Z" fill="#C7C7C7"/>
<path d="M139.731 117.991H115.728V119.592H139.731V117.991Z" fill="#C7C7C7"/>
<path d="M139.731 120.937H115.728V122.538H139.731V120.937Z" fill="#C7C7C7"/>
<path d="M88.4025 80.7569C88.2254 86.5592 88.9864 93.5489 86.1065 98.8493C83.8532 102.995 79.5892 105.577 75.2629 107.112C65.7509 110.487 52.8178 110.034 47.0549 100.407C44.7589 96.5599 44.8966 88.9273 49.3771 86.4641C51.6731 85.2078 54.2971 85.0766 56.8424 84.5945C60.1814 83.9647 62.6808 82.2985 64.4225 79.3793C67.8304 73.6721 67.5713 69.2834 68.6241 62.9104C68.8242 61.7296 69.1916 60.5783 70.4445 59.6632C71.5759 58.706 72.947 58.0754 74.4101 57.8395C75.6734 57.4013 77.0254 57.2819 78.3461 57.4918C81.1636 58.0035 83.6925 60.8342 85.7654 62.6316C87.8384 64.429 88.7568 66.2593 88.7174 69.0637C88.6945 72.9636 88.5206 76.8602 88.4025 80.7569Z" fill="#263238"/>
<path d="M88.911 83.5383C88.7339 78.205 88.4485 72.8881 88.1992 67.5614C88.1992 67.5286 88.15 67.5253 88.15 67.5614C88.2255 71.9501 88.2451 76.3354 88.3796 80.7241C88.5108 85.0241 88.9405 89.4357 88.7076 93.7358C88.1566 103.382 77.9525 106.551 69.7951 105.455C69.4245 105.406 69.3884 106.003 69.7656 106.039C76.9554 106.777 85.7392 104.97 88.5108 97.3045C90.0163 93.1094 89.0586 87.904 88.911 83.5383Z" fill="#263238"/>
<path d="M69.1523 62.4414C69.1485 62.4228 69.1384 62.4061 69.1238 62.3942C69.1091 62.3822 69.0908 62.3757 69.0719 62.3757C69.053 62.3757 69.0346 62.3822 69.02 62.3942C69.0054 62.4061 68.9953 62.4228 68.9915 62.4414C68.3355 67.7222 68.0895 73.9214 64.7275 78.3231C63.0648 80.4757 60.791 82.0762 58.2036 82.9151C56.1536 83.5711 54.038 83.4825 51.9257 83.7351C43.6732 84.7191 42.7417 95.6907 48.3439 100.424C48.4587 100.522 48.6358 100.325 48.521 100.217C44.6146 96.5862 43.6995 90.4558 47.4288 86.2902C50.4202 82.9479 55.5632 84.4731 59.4205 82.8397C67.4139 79.4547 68.7291 70.1461 69.1523 62.4414Z" fill="#263238"/>
<path d="M70.0018 84.952C61.4311 93.6407 50.6498 111.92 52.6571 115.623C54.8974 119.753 66.8333 107.571 66.7874 106.859C66.7513 106.321 70.953 95.2184 74.1379 87.143C77.3227 79.0677 72.1239 82.7905 70.0018 84.952Z" fill="#F7A9A0"/>
<path d="M66.8661 106.859C67.2334 105.672 72.9472 91.0331 74.5806 86.4018C76.2141 81.7704 74.6987 80.3403 70.0346 84.5814C65.3704 88.8224 55.1434 102.985 52.8113 110.493C50.5612 117.736 54.2906 117.736 59.2106 114.397C63.2384 111.677 66.8661 106.859 66.8661 106.859Z" fill="#F4D03F"/>
<path d="M75.194 83.9024C75.194 83.9877 75.1776 84.073 75.1645 84.1648C75.1369 84.2044 75.1001 84.2368 75.0573 84.259C75.0144 84.2813 74.9668 84.2929 74.9185 84.2927C74.8651 84.2926 74.8127 84.2778 74.7671 84.25C74.7215 84.2221 74.6844 84.1823 74.6598 84.1348C74.6353 84.0873 74.6243 84.034 74.628 83.9807C74.6316 83.9274 74.6499 83.8761 74.6807 83.8325C74.7115 83.7888 74.7537 83.7544 74.8027 83.7331C74.8517 83.7118 74.9057 83.7043 74.9586 83.7116C75.0116 83.7188 75.0615 83.7404 75.103 83.774C75.1445 83.8077 75.176 83.8521 75.194 83.9024ZM65.4688 90.0294C65.4102 90.0288 65.3526 90.0456 65.3036 90.0778C65.2546 90.11 65.2162 90.1561 65.1935 90.2101C65.1707 90.2642 65.1646 90.3238 65.1759 90.3814C65.1872 90.439 65.2153 90.4919 65.2568 90.5334C65.2983 90.5748 65.3512 90.603 65.4088 90.6143C65.4663 90.6256 65.526 90.6195 65.58 90.5967C65.6341 90.574 65.6802 90.5356 65.7124 90.4866C65.7446 90.4375 65.7614 90.38 65.7607 90.3214C65.7607 90.2439 65.73 90.1697 65.6752 90.1149C65.6205 90.0602 65.5463 90.0294 65.4688 90.0294ZM70.192 90.0294C70.1335 90.0294 70.0763 90.0468 70.0277 90.0794C69.9791 90.112 69.9412 90.1583 69.919 90.2124C69.8968 90.2666 69.8911 90.3261 69.9028 90.3834C69.9144 90.4408 69.9429 90.4934 69.9845 90.5345C70.0261 90.5757 70.079 90.6035 70.1365 90.6146C70.194 90.6256 70.2534 90.6193 70.3073 90.5964C70.3612 90.5736 70.407 90.5352 70.4391 90.4862C70.4711 90.4373 70.4879 90.3799 70.4872 90.3214C70.4872 90.2827 70.4796 90.2445 70.4647 90.2089C70.4498 90.1733 70.428 90.1409 70.4006 90.1138C70.3731 90.0866 70.3405 90.0652 70.3047 90.0507C70.269 90.0362 70.2306 90.029 70.192 90.0294ZM67.8304 87.002C67.7719 87.002 67.7147 87.0194 67.6661 87.052C67.6175 87.0846 67.5796 87.1309 67.5574 87.185C67.5352 87.2391 67.5295 87.2987 67.5412 87.356C67.5528 87.4134 67.5813 87.4659 67.6229 87.5071C67.6645 87.5482 67.7174 87.5761 67.7749 87.5871C67.8324 87.5981 67.8918 87.5918 67.9457 87.569C67.9996 87.5461 68.0454 87.5078 68.0775 87.4588C68.1095 87.4098 68.1263 87.3524 68.1256 87.2939C68.1256 87.2553 68.118 87.2171 68.1031 87.1814C68.0882 87.1458 68.0664 87.1135 68.039 87.0863C68.0115 87.0592 67.9789 87.0377 67.9431 87.0233C67.9074 87.0088 67.869 87.0016 67.8304 87.002ZM72.5569 87.002C72.4983 87.0013 72.4407 87.0182 72.3917 87.0504C72.3426 87.0826 72.3043 87.1286 72.2815 87.1827C72.2588 87.2368 72.2527 87.2964 72.264 87.354C72.2752 87.4115 72.3034 87.4644 72.3449 87.5059C72.3864 87.5474 72.4393 87.5756 72.4969 87.5869C72.5544 87.5982 72.614 87.592 72.6681 87.5693C72.7222 87.5465 72.7683 87.5082 72.8004 87.4591C72.8326 87.4101 72.8495 87.3526 72.8488 87.2939C72.8488 87.2165 72.8181 87.1422 72.7633 87.0875C72.7086 87.0328 72.6343 87.002 72.5569 87.002ZM60.7489 96.35C60.6903 96.3493 60.6327 96.3662 60.5837 96.3984C60.5346 96.4306 60.4963 96.4766 60.4735 96.5307C60.4508 96.5848 60.4447 96.6444 60.456 96.702C60.4672 96.7595 60.4954 96.8124 60.5369 96.8539C60.5784 96.8954 60.6313 96.9236 60.6889 96.9349C60.7464 96.9462 60.806 96.94 60.8601 96.9173C60.9142 96.8945 60.9603 96.8562 60.9924 96.8071C61.0246 96.7581 61.0415 96.7006 61.0408 96.6419C61.0408 96.6033 61.0332 96.5651 61.0183 96.5294C61.0034 96.4938 60.9816 96.4615 60.9542 96.4343C60.9267 96.4072 60.8941 96.3857 60.8583 96.3713C60.8225 96.3568 60.7842 96.3496 60.7456 96.35H60.7489ZM65.4721 96.35C65.4134 96.3493 65.3559 96.3662 65.3069 96.3984C65.2578 96.4306 65.2195 96.4766 65.1967 96.5307C65.174 96.5848 65.1679 96.6444 65.1792 96.702C65.1904 96.7595 65.2186 96.8124 65.2601 96.8539C65.3016 96.8954 65.3545 96.9236 65.4121 96.9349C65.4696 96.9462 65.5292 96.94 65.5833 96.9173C65.6374 96.8945 65.6835 96.8562 65.7156 96.8071C65.7478 96.7581 65.7647 96.7006 65.764 96.6419C65.764 96.6033 65.7564 96.5651 65.7415 96.5294C65.7266 96.4938 65.7048 96.4615 65.6774 96.4343C65.6499 96.4072 65.6173 96.3857 65.5815 96.3713C65.5458 96.3568 65.5074 96.3496 65.4688 96.35H65.4721ZM70.1953 96.35C70.1368 96.35 70.0796 96.3674 70.031 96.4C69.9824 96.4326 69.9445 96.4789 69.9223 96.533C69.9 96.5871 69.8944 96.6466 69.906 96.704C69.9177 96.7614 69.9461 96.8139 69.9878 96.8551C70.0294 96.8962 70.0823 96.9241 70.1398 96.9351C70.1972 96.9461 70.2567 96.9398 70.3106 96.917C70.3644 96.8941 70.4103 96.8558 70.4424 96.8068C70.4744 96.7578 70.4912 96.7004 70.4905 96.6419C70.4905 96.603 70.4828 96.5645 70.4677 96.5287C70.4526 96.4928 70.4305 96.4603 70.4027 96.4331C70.3749 96.406 70.3419 96.3846 70.3058 96.3703C70.2696 96.356 70.2309 96.3491 70.192 96.35H70.1953ZM63.1105 93.3226C63.0518 93.3219 62.9943 93.3388 62.9453 93.3709C62.8962 93.4031 62.8579 93.4492 62.8351 93.5033C62.8124 93.5573 62.8063 93.617 62.8176 93.6745C62.8288 93.7321 62.857 93.785 62.8985 93.8265C62.94 93.868 62.9929 93.8961 63.0505 93.9074C63.108 93.9187 63.1676 93.9126 63.2217 93.8898C63.2758 93.8671 63.3219 93.8287 63.354 93.7797C63.3862 93.7307 63.4031 93.6731 63.4024 93.6145C63.4024 93.5759 63.3948 93.5376 63.3799 93.502C63.365 93.4664 63.3432 93.434 63.3158 93.4069C63.2883 93.3797 63.2557 93.3583 63.22 93.3438C63.1842 93.3294 63.1458 93.3221 63.1072 93.3226H63.1105ZM67.8337 93.3226C67.7752 93.3226 67.718 93.34 67.6694 93.3725C67.6208 93.4051 67.5829 93.4514 67.5607 93.5056C67.5384 93.5597 67.5328 93.6192 67.5444 93.6766C67.5561 93.7339 67.5845 93.7865 67.6262 93.8277C67.6678 93.8688 67.7207 93.8967 67.7782 93.9077C67.8356 93.9187 67.8951 93.9124 67.949 93.8895C68.0028 93.8667 68.0487 93.8283 68.0808 93.7794C68.1128 93.7304 68.1296 93.673 68.1289 93.6145C68.1289 93.5756 68.1212 93.5371 68.1061 93.5012C68.091 93.4654 68.0689 93.4329 68.0411 93.4057C68.0133 93.3785 67.9803 93.3571 67.9442 93.3429C67.908 93.3286 67.8693 93.3217 67.8304 93.3226H67.8337ZM60.7456 102.664C60.687 102.663 60.6294 102.68 60.5804 102.712C60.5314 102.745 60.493 102.791 60.4703 102.845C60.4475 102.899 60.4414 102.958 60.4527 103.016C60.464 103.074 60.4921 103.126 60.5336 103.168C60.5751 103.209 60.628 103.238 60.6856 103.249C60.7431 103.26 60.8028 103.254 60.8568 103.231C60.9109 103.209 60.957 103.17 60.9892 103.121C61.0213 103.072 61.0382 103.015 61.0375 102.956C61.0375 102.878 61.0068 102.804 60.952 102.749C60.8973 102.695 60.823 102.664 60.7456 102.664ZM65.4688 102.664C65.4102 102.663 65.3526 102.68 65.3036 102.712C65.2546 102.745 65.2162 102.791 65.1935 102.845C65.1707 102.899 65.1646 102.958 65.1759 103.016C65.1872 103.074 65.2153 103.126 65.2568 103.168C65.2983 103.209 65.3512 103.238 65.4088 103.249C65.4663 103.26 65.526 103.254 65.58 103.231C65.6341 103.209 65.6802 103.17 65.7124 103.121C65.7446 103.072 65.7614 103.015 65.7607 102.956C65.7607 102.878 65.73 102.804 65.6752 102.749C65.6205 102.695 65.5463 102.664 65.4688 102.664ZM58.384 99.6431C58.3255 99.6431 58.2683 99.6605 58.2197 99.6931C58.1711 99.7257 58.1332 99.772 58.111 99.8261C58.0888 99.8802 58.0831 99.9398 58.0948 99.9971C58.1064 100.054 58.1349 100.107 58.1765 100.148C58.2181 100.189 58.271 100.217 58.3285 100.228C58.386 100.239 58.4454 100.233 58.4993 100.21C58.5532 100.187 58.599 100.149 58.6311 100.1C58.6631 100.051 58.6799 99.9936 58.6792 99.935C58.6792 99.8964 58.6716 99.8582 58.6567 99.8226C58.6418 99.7869 58.62 99.7546 58.5926 99.7274C58.5651 99.7003 58.5325 99.6789 58.4967 99.6644C58.461 99.6499 58.4226 99.6427 58.384 99.6431ZM63.1105 99.6431C63.0518 99.6425 62.9943 99.6593 62.9453 99.6915C62.8962 99.7237 62.8579 99.7698 62.8351 99.8238C62.8124 99.8779 62.8063 99.9375 62.8176 99.9951C62.8288 100.053 62.857 100.106 62.8985 100.147C62.94 100.189 62.9929 100.217 63.0505 100.228C63.108 100.239 63.1676 100.233 63.2217 100.21C63.2758 100.188 63.3219 100.149 63.354 100.1C63.3862 100.051 63.4031 99.9937 63.4024 99.935C63.4024 99.8964 63.3948 99.8582 63.3799 99.8226C63.365 99.7869 63.3432 99.7546 63.3158 99.7274C63.2883 99.7003 63.2557 99.6789 63.22 99.6644C63.1842 99.6499 63.1458 99.6427 63.1072 99.6431H63.1105ZM67.8337 99.6431C67.7752 99.6431 67.718 99.6605 67.6694 99.6931C67.6208 99.7257 67.5829 99.772 67.5607 99.8261C67.5384 99.8802 67.5328 99.9398 67.5444 99.9971C67.5561 100.054 67.5845 100.107 67.6262 100.148C67.6678 100.189 67.7207 100.217 67.7782 100.228C67.8356 100.239 67.8951 100.233 67.949 100.21C68.0028 100.187 68.0487 100.149 68.0808 100.1C68.1128 100.051 68.1296 99.9936 68.1289 99.935C68.1289 99.8961 68.1212 99.8576 68.1061 99.8218C68.091 99.7859 68.0689 99.7535 68.0411 99.7263C68.0133 99.6991 67.9803 99.6777 67.9442 99.6634C67.908 99.6491 67.8693 99.6422 67.8304 99.6431H67.8337ZM56.0257 108.991C55.9681 108.992 55.912 109.009 55.8644 109.042C55.8169 109.074 55.78 109.12 55.7584 109.174C55.7368 109.227 55.7315 109.286 55.7431 109.342C55.7547 109.398 55.7828 109.45 55.8237 109.491C55.8647 109.531 55.9167 109.559 55.9732 109.57C56.0298 109.581 56.0883 109.575 56.1414 109.552C56.1946 109.53 56.24 109.493 56.2719 109.445C56.3039 109.397 56.3209 109.341 56.3209 109.283C56.3209 109.244 56.3131 109.205 56.2978 109.169C56.2825 109.133 56.2601 109.1 56.232 109.073C56.2038 109.046 56.1704 109.025 56.1339 109.01C56.0973 108.996 56.0583 108.99 56.0191 108.991H56.0257ZM60.7522 108.991C60.6945 108.991 60.638 109.008 60.59 109.04C60.542 109.072 60.5046 109.118 60.4825 109.171C60.4604 109.225 60.4546 109.283 60.4659 109.34C60.4771 109.397 60.5049 109.449 60.5458 109.489C60.5866 109.53 60.6386 109.558 60.6952 109.569C60.7519 109.581 60.8106 109.575 60.8639 109.553C60.9172 109.531 60.9628 109.493 60.9949 109.445C61.027 109.397 61.0441 109.341 61.0441 109.283C61.0441 109.244 61.0364 109.206 61.0213 109.17C61.0062 109.134 60.9841 109.101 60.9563 109.074C60.9285 109.047 60.8955 109.026 60.8594 109.011C60.8232 108.997 60.7845 108.99 60.7456 108.991H60.7522ZM58.384 105.964C58.3255 105.964 58.2683 105.981 58.2197 106.014C58.1711 106.046 58.1332 106.093 58.111 106.147C58.0888 106.201 58.0831 106.26 58.0948 106.318C58.1064 106.375 58.1349 106.428 58.1765 106.469C58.2181 106.51 58.271 106.538 58.3285 106.549C58.386 106.56 58.4454 106.553 58.4993 106.531C58.5532 106.508 58.599 106.469 58.6311 106.42C58.6631 106.372 58.6799 106.314 58.6792 106.256C58.6792 106.217 58.6716 106.179 58.6567 106.143C58.6418 106.107 58.62 106.075 58.5926 106.048C58.5651 106.021 58.5325 105.999 58.4967 105.985C58.461 105.97 58.4226 105.963 58.384 105.964ZM63.1105 105.964C63.0518 105.963 62.9943 105.98 62.9453 106.012C62.8962 106.044 62.8579 106.09 62.8351 106.144C62.8124 106.198 62.8063 106.258 62.8176 106.316C62.8288 106.373 62.857 106.426 62.8985 106.468C62.94 106.509 62.9929 106.537 63.0505 106.549C63.108 106.56 63.1676 106.554 63.2217 106.531C63.2758 106.508 63.3219 106.47 63.354 106.421C63.3862 106.372 63.4031 106.314 63.4024 106.256C63.4024 106.217 63.3948 106.179 63.3799 106.143C63.365 106.107 63.3432 106.075 63.3158 106.048C63.2883 106.021 63.2557 105.999 63.22 105.985C63.1842 105.97 63.1458 105.963 63.1072 105.964H63.1105ZM56.0224 115.312C55.9648 115.312 55.9087 115.33 55.8612 115.362C55.8136 115.395 55.7767 115.441 55.7551 115.494C55.7335 115.548 55.7282 115.606 55.7398 115.663C55.7514 115.719 55.7795 115.771 55.8204 115.811C55.8614 115.852 55.9134 115.879 55.97 115.89C56.0265 115.901 56.085 115.895 56.1382 115.873C56.1913 115.851 56.2367 115.813 56.2686 115.765C56.3006 115.717 56.3176 115.661 56.3176 115.604C56.3176 115.565 56.3099 115.526 56.2948 115.49C56.2797 115.454 56.2576 115.422 56.2298 115.395C56.202 115.368 56.1691 115.346 56.1329 115.332C56.0967 115.318 56.058 115.311 56.0191 115.312H56.0224ZM53.6608 112.284C53.6022 112.284 53.5446 112.3 53.4956 112.333C53.4466 112.365 53.4082 112.411 53.3855 112.465C53.3627 112.519 53.3566 112.579 53.3679 112.636C53.3792 112.694 53.4073 112.747 53.4488 112.788C53.4903 112.83 53.5432 112.858 53.6008 112.869C53.6583 112.88 53.718 112.874 53.772 112.852C53.8261 112.829 53.8722 112.79 53.9044 112.741C53.9366 112.692 53.9534 112.635 53.9528 112.576C53.9528 112.538 53.9451 112.499 53.9302 112.464C53.9153 112.428 53.8935 112.396 53.8661 112.369C53.8386 112.341 53.8061 112.32 53.7703 112.306C53.7345 112.291 53.6962 112.284 53.6575 112.284H53.6608ZM58.384 112.284C58.3255 112.284 58.2683 112.302 58.2197 112.334C58.1711 112.367 58.1332 112.413 58.111 112.467C58.0888 112.521 58.0831 112.581 58.0948 112.638C58.1064 112.696 58.1349 112.748 58.1765 112.789C58.2181 112.83 58.271 112.858 58.3285 112.869C58.386 112.88 58.4454 112.874 58.4993 112.851C58.5532 112.828 58.599 112.79 58.6311 112.741C58.6631 112.692 58.6799 112.635 58.6792 112.576C58.6792 112.538 58.6716 112.499 58.6567 112.464C58.6418 112.428 58.62 112.396 58.5926 112.369C58.5651 112.341 58.5325 112.32 58.4967 112.306C58.461 112.291 58.4226 112.284 58.384 112.284Z" fill="#87C159"/>
<path d="M63.4778 120.16L64.3339 115.026L65.5639 105.918C65.5639 105.918 62.6677 100.86 64.347 97.2323C65.1966 95.3922 72.6389 83.968 75.768 81.672C78.72 79.5367 82.984 81.8229 84.565 83.4924C90.6854 89.9343 93.5718 102.726 95.7694 120.15L63.4778 120.16Z" fill="#F7A9A0"/>
<path d="M64.5504 113.416L65.5639 105.921C65.5639 105.921 62.6677 100.863 64.3471 97.2323C65.1966 95.3922 72.6389 83.968 75.768 81.672C78.72 79.54 82.984 81.8229 84.565 83.4957C89.8655 89.0717 92.742 99.4168 94.8445 113.406L64.5504 113.416Z" fill="#F4D03F"/>
<path d="M77.1128 105.767C75.6839 105.642 74.2477 105.623 72.816 105.711C72.1075 105.764 71.4023 105.849 70.6971 105.951C70.3462 106 69.9952 106.039 69.641 106.075C69.2728 106.121 68.9004 106.121 68.5323 106.075C68.5283 106.074 68.5241 106.073 68.5199 106.074C68.5157 106.074 68.5117 106.076 68.5082 106.078C68.5047 106.081 68.5019 106.084 68.4999 106.088C68.498 106.091 68.4969 106.096 68.4969 106.1C68.4969 106.104 68.498 106.108 68.4999 106.112C68.5019 106.116 68.5047 106.119 68.5082 106.121C68.5117 106.124 68.5157 106.125 68.5199 106.126C68.5241 106.126 68.5283 106.126 68.5323 106.124C68.8748 106.203 69.2222 106.259 69.5721 106.292C69.9117 106.315 70.2525 106.315 70.5922 106.292C71.3138 106.246 72.0321 106.164 72.7537 106.111C74.2067 106 75.6598 105.892 77.1194 105.885C77.135 105.884 77.1497 105.877 77.1601 105.865C77.1706 105.854 77.176 105.838 77.1751 105.823C77.1742 105.807 77.1672 105.792 77.1555 105.782C77.1438 105.771 77.1285 105.766 77.1128 105.767Z" fill="#263238"/>
<path d="M80.36 107.63C79.2235 107.302 78.0692 107.039 76.9029 106.843C76.319 106.744 75.7352 106.685 75.1448 106.636C74.8627 106.613 74.5806 106.597 74.2985 106.584C74.0165 106.57 73.6753 106.584 73.3637 106.584C73.3309 106.584 73.3211 106.63 73.3637 106.633C73.6557 106.662 73.9443 106.738 74.2329 106.784L75.1054 106.915C75.6893 107.003 76.2731 107.099 76.8569 107.184C78.0246 107.351 79.189 107.528 80.3501 107.735C80.4125 107.738 80.4256 107.646 80.36 107.63Z" fill="#263238"/>
<path d="M64.3339 115.026C64.4979 113.504 64.6619 111.979 64.8554 110.461C65.049 108.942 65.2162 107.417 65.4196 105.898L65.4491 106.006C65.0137 105.386 64.6557 104.716 64.3831 104.009C64.1035 103.308 63.9012 102.579 63.7796 101.834C63.6616 101.087 63.6286 100.329 63.6812 99.5742C63.7663 98.8208 63.9539 98.0826 64.2388 97.3799C64.8058 96.0007 65.5102 94.6821 66.3413 93.4439C67.1524 92.1961 68.0374 90.9978 68.9915 89.8556C68.1092 91.0495 67.2826 92.2861 66.5086 93.5489C65.7282 94.7996 65.0598 96.1167 64.511 97.4849C64.2413 98.1627 64.0669 98.8747 63.9928 99.6005C63.9518 100.329 63.9881 101.06 64.101 101.782C64.2124 102.505 64.4027 103.215 64.6685 103.897C64.9245 104.581 65.2638 105.231 65.6787 105.832L65.7115 105.882V105.937C65.5082 107.456 65.2687 108.968 65.0555 110.487C64.8423 112.005 64.5799 113.514 64.3339 115.026Z" fill="#263238"/>
<path d="M66.5085 93.4374C66.5258 93.2333 66.5666 93.0319 66.6299 92.8371C66.6898 92.6429 66.7609 92.4523 66.8431 92.2664C66.9251 92.0827 67.0104 91.8991 67.1088 91.7219C67.2068 91.5433 67.3164 91.3713 67.4368 91.207C67.3121 91.5973 67.1514 91.9646 66.994 92.332C66.8365 92.6994 66.6627 93.0602 66.5085 93.4374Z" fill="#263238"/>
<path d="M39.9307 145.819H124.069L127.205 130.049H36.795L39.9307 145.819Z" fill="#F4D03F"/>
<path opacity="0.12" d="M36.7983 130.049L37.9201 135.687H126.08L127.202 130.049H36.7983Z" fill="black"/>
<path d="M35.2206 133.752H128.779V128.953H35.2206V133.752Z" fill="#F4D03F"/>
<path d="M127.72 127.438C127.434 127.718 127.073 127.908 126.68 127.986C126.87 128.463 126.909 128.986 126.791 129.486C126.674 129.986 126.406 130.437 126.024 130.78C126.135 131.029 126.171 131.305 126.129 131.574C126.087 131.843 125.968 132.094 125.786 132.297C125.605 132.5 125.368 132.646 125.106 132.718C124.843 132.79 124.565 132.785 124.305 132.702C124.074 133.138 123.754 133.52 123.366 133.824C122.978 134.129 122.531 134.348 122.053 134.469C121.575 134.59 121.077 134.609 120.591 134.526C120.105 134.442 119.642 134.258 119.231 133.985C119.014 134.372 118.705 134.7 118.33 134.939C117.956 135.178 117.528 135.322 117.086 135.356C116.643 135.39 116.198 135.315 115.792 135.136C115.385 134.958 115.028 134.682 114.754 134.332C113.906 134.948 112.861 135.232 111.818 135.129C110.775 135.027 109.806 134.547 109.093 133.778C108.699 134.141 108.201 134.37 107.669 134.434C107.013 134.546 106.324 134.47 105.682 134.624C104.77 134.844 104.222 135.5 103.517 136.048C102.812 136.596 101.549 136.802 100.87 136.245C100.134 137.548 99.0905 138.651 97.8295 139.457C96.5685 140.262 95.1291 140.746 93.6374 140.866C91.0757 141.063 87.8843 139.84 87.2775 137.216C86.6301 137.774 85.8583 138.17 85.0267 138.37C84.195 138.57 83.3276 138.569 82.4968 138.365C81.6661 138.162 80.896 137.762 80.251 137.201C79.6059 136.639 79.1046 135.931 78.7889 135.136C76.7782 135.976 74.1739 136.537 72.8849 134.598C72.3437 135.223 71.5908 135.626 70.7706 135.731C69.9504 135.835 69.1206 135.632 68.4405 135.162C66.3937 137.33 62.7234 139.948 60.3028 137.081C58.2298 138.941 54.7694 140.168 52.9851 137.409C51.25 138.429 49.0491 139.348 47.1401 138.344C45.8806 137.688 45.0672 136.343 45.2738 134.969C44.7853 135.06 44.2806 135.007 43.8223 134.814C43.3641 134.622 42.9723 134.299 42.6957 133.886C41.8757 134.277 41.41 133.421 40.7638 132.873C39.5207 131.807 37.8774 132.584 36.5818 131.672C34.4826 130.2 36.2866 127.845 37.9693 127.08C37.8924 126.549 37.9484 126.006 38.1323 125.502C38.3163 124.997 38.6224 124.546 39.0233 124.189C39.4243 123.831 39.9075 123.579 40.4299 123.454C40.9523 123.329 41.4975 123.335 42.0168 123.472C41.8947 122.645 42.0269 121.799 42.3959 121.048C42.7649 120.298 43.3533 119.676 44.0832 119.267C46.3201 118.008 48.9179 119.107 50.5579 120.819C51.3679 119.588 52.4866 118.591 53.8022 117.927C55.1179 117.264 56.5846 116.957 58.056 117.037C59.8862 117.135 62.32 118.211 63.2056 119.917C63.8086 119.57 64.4596 119.315 65.1375 119.159C66.4139 118.86 67.7481 118.92 68.9929 119.33C70.2378 119.741 71.3451 120.488 72.1928 121.488C73.277 121.087 74.4501 120.991 75.585 121.21C76.72 121.428 77.7735 121.953 78.6314 122.728C79.1589 121.995 79.8595 121.404 80.6708 121.007C81.4822 120.611 82.379 120.421 83.2814 120.455C84.1837 120.489 85.0637 120.746 85.8428 121.203C86.6218 121.659 87.2759 122.301 87.7465 123.072C88.607 122.069 89.6851 121.276 90.8986 120.753C92.1122 120.23 93.4291 119.991 94.749 120.054C96.0689 120.118 97.357 120.482 98.5149 121.118C99.6729 121.755 100.67 122.648 101.431 123.728C103.038 120.884 106.279 120.72 109.385 121.068C110.369 121.173 111.025 121.166 111.917 120.756C112.245 120.609 112.527 120.396 112.852 120.255C113.529 119.953 114.252 119.767 114.99 119.704C116.477 119.573 117.969 119.893 119.271 120.622C119.845 120.95 120.432 121.777 120.983 122.003C121.675 122.285 122.951 121.882 123.748 121.986C125.178 122.18 126.7 122.852 127.628 124.004C128.419 125.02 128.747 126.477 127.72 127.438Z" fill="#87C159"/>
<path d="M46.5104 126.103C47.1664 124.742 46.5104 122.308 44.795 121.609C43.0795 120.911 40.7442 122.236 40.3637 123.735C39.9832 125.234 41.6232 127.74 42.968 127.92C44.4703 128.11 46.025 127.103 46.5104 126.103Z" fill="#F4D03F"/>
<path opacity="0.12" d="M39.6453 124.096C40.8622 125.139 42.8827 126.064 44.5358 125.995C43.8893 126.793 43.1542 127.514 42.3448 128.146C42.2989 128.186 42.3448 128.271 42.4071 128.235C44.3029 126.972 46.1693 124.689 46.2513 122.331C46.2513 122.298 46.2086 122.298 46.2053 122.331C46.125 122.992 45.9377 123.636 45.651 124.237C44.995 122.826 43.1385 121.767 41.715 121.432C41.7059 121.429 41.6959 121.43 41.6873 121.434C41.6787 121.438 41.6721 121.446 41.6691 121.455C41.6661 121.464 41.6668 121.474 41.6711 121.483C41.6754 121.491 41.6829 121.498 41.6921 121.501C42.1276 121.677 42.5536 121.877 42.968 122.098C42.1808 122.793 41.5871 124.148 41.7642 125.188C41.046 124.867 40.3642 124.47 39.7306 124.004C39.688 123.954 39.5896 124.05 39.6453 124.096ZM44.608 125.913C43.9271 125.866 43.2555 125.729 42.6105 125.506C43.5849 125.562 44.5519 125.307 45.3722 124.778C45.1446 125.174 44.8892 125.553 44.608 125.913ZM45.592 124.345C45.5395 124.453 45.4837 124.558 45.4247 124.673C44.7841 124.998 44.0913 125.208 43.378 125.293C44.0556 124.867 44.584 124.241 44.8901 123.502C45.149 123.761 45.3839 124.043 45.592 124.345ZM44.8507 123.453C44.5898 123.914 44.2736 124.341 43.9093 124.725C43.7749 124.696 43.6437 124.656 43.5125 124.614C43.7243 124.455 43.8946 124.248 44.0089 124.009C44.1231 123.77 44.1779 123.507 44.1685 123.243C44.3521 123.266 44.5391 123.298 44.7293 123.338L44.8507 123.453ZM43.4534 123.203C43.5133 123.299 43.5617 123.401 43.5977 123.508C43.6278 123.641 43.6399 123.776 43.6338 123.912C43.4154 123.943 43.1931 123.934 42.9778 123.886C43.0278 123.659 43.1037 123.439 43.2041 123.23C43.296 123.21 43.3714 123.207 43.4534 123.203ZM43.5748 123.203C43.7579 123.203 43.9408 123.214 44.1225 123.236C44.0749 123.455 44.0045 123.668 43.9126 123.872L43.6601 123.909C43.6992 123.792 43.7118 123.668 43.697 123.546C43.6823 123.424 43.6405 123.307 43.5748 123.203ZM43.8733 123.948C43.7508 124.183 43.5862 124.393 43.3878 124.568C43.2681 124.52 43.151 124.467 43.0369 124.407C42.9765 124.264 42.9528 124.109 42.968 123.954C43.1099 124.021 43.2648 124.054 43.4214 124.053C43.5779 124.052 43.7323 124.016 43.8733 123.948ZM43.0205 122.121C43.5805 122.422 44.1043 122.786 44.5817 123.207C43.8392 122.961 43.0309 123.008 42.3218 123.338C42.4973 122.902 42.7324 122.492 43.0205 122.121ZM42.2825 123.433C42.5593 123.328 42.8479 123.256 43.1418 123.22C43.0142 123.368 42.9249 123.545 42.882 123.735C42.8391 123.926 42.8438 124.124 42.8958 124.312C42.6232 124.153 42.3811 123.946 42.1808 123.702C42.2136 123.617 42.2497 123.528 42.2825 123.44V123.433ZM42.1316 123.846C42.343 124.107 42.6047 124.323 42.901 124.482C43.1973 124.64 43.5223 124.737 43.8569 124.768C43.6664 124.962 43.459 125.139 43.2369 125.296C42.9483 125.335 42.6498 125.362 42.3349 125.391C42.1742 125.329 42.0069 125.266 41.8528 125.198C41.9027 124.741 41.9961 124.291 42.1316 123.853V123.846Z" fill="black"/>
<path d="M75.1743 125.594C75.8303 124.23 75.1743 121.8 73.4589 121.098C71.7434 120.396 69.4048 121.727 69.0243 123.223C68.6438 124.719 70.2871 127.231 71.6483 127.405C73.144 127.592 74.6889 126.608 75.1743 125.594Z" fill="#F4D03F"/>
<path opacity="0.12" d="M68.3093 123.587C69.5262 124.627 71.5434 125.555 73.1998 125.486C72.5532 126.284 71.8182 127.006 71.0087 127.638C70.9628 127.677 71.0087 127.759 71.071 127.726C72.9669 126.464 74.8332 124.178 74.9152 121.822C74.9152 121.816 74.9128 121.811 74.9085 121.806C74.9042 121.802 74.8983 121.8 74.8922 121.8C74.8862 121.8 74.8803 121.802 74.876 121.806C74.8717 121.811 74.8693 121.816 74.8693 121.822C74.7884 122.483 74.6013 123.127 74.315 123.728C73.659 122.318 71.8025 121.258 70.379 120.924C70.3698 120.921 70.3599 120.921 70.3513 120.926C70.3426 120.93 70.3361 120.938 70.333 120.947C70.33 120.956 70.3307 120.966 70.335 120.974C70.3393 120.983 70.3469 120.99 70.356 120.993C70.7919 121.168 71.2179 121.367 71.6319 121.59C70.8447 122.285 70.251 123.636 70.4282 124.676C69.7094 124.358 69.0275 123.962 68.3946 123.495C68.3355 123.446 68.2535 123.538 68.3093 123.587ZM73.2654 125.404C72.5843 125.356 71.9127 125.218 71.2678 124.994C72.2416 125.054 73.2087 124.798 74.0263 124.266C73.8018 124.664 73.5474 125.045 73.2654 125.404ZM74.2494 123.836C74.1969 123.945 74.1411 124.05 74.0821 124.164C73.4415 124.49 72.7487 124.699 72.0354 124.784C72.7129 124.359 73.2414 123.733 73.5474 122.993C73.8102 123.251 74.0475 123.533 74.2559 123.836H74.2494ZM73.5048 122.941C73.247 123.404 72.9318 123.833 72.5667 124.217C72.4322 124.187 72.2997 124.148 72.1698 124.102C72.3817 123.943 72.552 123.736 72.6663 123.497C72.7805 123.258 72.8352 122.996 72.8258 122.731C73.0095 122.753 73.1965 122.786 73.3867 122.829L73.5048 122.941ZM72.1108 122.695C72.1693 122.791 72.2176 122.894 72.2551 123C72.2853 123.132 72.2974 123.268 72.2912 123.403C72.0726 123.433 71.8503 123.423 71.6352 123.374C71.6861 123.148 71.762 122.928 71.8615 122.718C71.9534 122.702 72.0354 122.695 72.1174 122.695H72.1108ZM72.2322 122.695C72.4152 122.696 72.598 122.707 72.7799 122.728C72.7333 122.947 72.6617 123.161 72.5667 123.364C72.4847 123.364 72.3994 123.394 72.3174 123.403C72.3578 123.286 72.3717 123.162 72.3581 123.039C72.3445 122.916 72.3037 122.797 72.2387 122.692L72.2322 122.695ZM72.5306 123.443C72.4073 123.677 72.2429 123.887 72.0452 124.063C71.9255 124.015 71.8084 123.962 71.6942 123.902C71.6341 123.759 71.6104 123.604 71.6254 123.449C71.7684 123.516 71.9246 123.55 72.0824 123.548C72.2402 123.546 72.3956 123.509 72.5372 123.44L72.5306 123.443ZM71.6778 121.616C72.2378 121.916 72.7617 122.279 73.2391 122.698C72.4962 122.454 71.6879 122.502 70.9792 122.833C71.1564 122.395 71.3938 121.985 71.6844 121.613L71.6778 121.616ZM70.9398 122.928C71.2163 122.821 71.505 122.749 71.7992 122.715C71.6715 122.862 71.5823 123.039 71.5394 123.23C71.4965 123.42 71.5012 123.619 71.5532 123.807C71.2836 123.647 71.0448 123.441 70.848 123.197L70.9398 122.928ZM70.789 123.341C71.0009 123.602 71.2627 123.817 71.5589 123.976C71.8551 124.134 72.1799 124.231 72.5142 124.263C72.323 124.456 72.1156 124.633 71.8943 124.791C71.6057 124.827 71.3072 124.856 70.9923 124.883H70.9759C70.8152 124.824 70.6479 124.761 70.4938 124.692C70.5506 124.234 70.6517 123.783 70.7955 123.344L70.789 123.341Z" fill="black"/>
<path d="M97.0454 131.777C98.5279 131.449 100.04 129.445 99.5447 127.667C99.0494 125.89 96.5632 124.85 95.1462 125.467C93.7293 126.083 92.7551 128.92 93.4439 130.095C94.2115 131.397 95.9597 132.007 97.0454 131.777Z" fill="#F4D03F"/>
<path opacity="0.12" d="M94.4213 125.125C94.3459 126.723 94.8543 128.884 95.9203 130.15C94.8946 130.128 93.8747 129.991 92.8797 129.74C92.8174 129.74 92.7879 129.826 92.8469 129.845C95.0052 130.567 97.9539 130.639 99.8727 129.258C99.8756 129.254 99.8771 129.248 99.8769 129.243C99.8767 129.238 99.8748 129.233 99.8716 129.228C99.8684 129.224 99.864 129.221 99.8589 129.219C99.8538 129.217 99.8483 129.217 99.8432 129.219C99.2715 129.562 98.6478 129.809 97.9965 129.95C98.7181 128.576 98.4065 126.451 97.7997 125.122C97.7967 125.113 97.7901 125.105 97.7815 125.101C97.7729 125.097 97.763 125.096 97.7538 125.099C97.7447 125.102 97.7371 125.109 97.7328 125.117C97.7285 125.126 97.7278 125.136 97.7309 125.145C97.8653 125.597 97.9748 126.056 98.0589 126.519C97.0257 126.323 95.5956 126.687 94.8805 127.464C94.6887 126.701 94.5788 125.919 94.5525 125.132C94.5493 125.057 94.4246 125.05 94.4213 125.125ZM96.0253 130.154C95.6463 129.587 95.3431 128.972 95.1233 128.327C95.6746 129.131 96.4688 129.738 97.3897 130.059C96.9378 130.123 96.4818 130.155 96.0253 130.154ZM97.8719 129.973C97.7538 130 97.6357 130.019 97.5177 130.036C96.8674 129.73 96.2766 129.311 95.7727 128.799C96.5243 129.074 97.3426 129.108 98.1146 128.897C98.0675 129.263 97.9862 129.623 97.8719 129.973ZM98.1212 128.838C97.5979 128.917 97.0668 128.93 96.5402 128.878C96.4807 128.753 96.4292 128.625 96.3861 128.494C96.6413 128.563 96.9094 128.569 97.1676 128.512C97.4257 128.455 97.6662 128.336 97.8686 128.166C97.9648 128.328 98.0534 128.495 98.1343 128.668C98.131 128.727 98.1277 128.783 98.1212 128.838ZM97.4652 127.582C97.425 127.688 97.3733 127.789 97.311 127.884C97.2283 127.991 97.1286 128.084 97.0158 128.159C96.8585 128.007 96.7306 127.827 96.6386 127.628C96.8478 127.527 97.0679 127.45 97.2946 127.398L97.4652 127.582ZM97.5406 127.681C97.6527 127.824 97.7557 127.974 97.8489 128.13C97.6486 128.23 97.4372 128.306 97.2192 128.356L97.0322 128.179C97.1483 128.139 97.2539 128.073 97.3413 127.987C97.4287 127.901 97.4957 127.796 97.5373 127.681H97.5406ZM97.1372 128.373C96.876 128.422 96.6079 128.422 96.3467 128.373C96.3102 128.25 96.2817 128.125 96.2614 127.999C96.3398 127.862 96.453 127.749 96.5894 127.671C96.6227 127.821 96.6888 127.961 96.7829 128.083C96.8771 128.204 96.9969 128.303 97.1339 128.373H97.1372ZM98.0556 126.578C98.1603 127.205 98.1933 127.841 98.154 128.474C97.894 127.738 97.3608 127.13 96.6649 126.775C97.1159 126.645 97.5829 126.579 98.0523 126.578H98.0556ZM96.5599 126.805C96.8143 126.957 97.048 127.141 97.2553 127.353C97.0602 127.342 96.8656 127.38 96.6887 127.463C96.5119 127.546 96.3583 127.671 96.2417 127.828C96.2011 127.514 96.2167 127.195 96.2877 126.887L96.5599 126.805ZM96.1433 126.939C96.0663 127.266 96.0556 127.606 96.1119 127.937C96.1683 128.268 96.2905 128.585 96.4713 128.868C96.2011 128.836 95.9343 128.78 95.6743 128.701C95.4677 128.494 95.261 128.278 95.0478 128.045C94.9953 127.877 94.9494 127.717 94.9035 127.546C95.2951 127.303 95.7092 127.099 96.1401 126.936L96.1433 126.939Z" fill="black"/>
<path d="M119.681 128.163C118.201 127.835 116.686 125.831 117.181 124.053C117.677 122.275 120.163 121.235 121.58 121.855C122.997 122.475 123.971 125.306 123.282 126.48C122.518 127.782 120.766 128.392 119.681 128.163Z" fill="#F4D03F"/>
<path opacity="0.12" d="M122.177 121.517C122.149 122.304 122.039 123.086 121.849 123.85C121.137 123.072 119.704 122.711 118.67 122.905C118.755 122.441 118.864 121.982 118.998 121.531C119 121.526 119 121.521 119 121.517C119 121.512 118.999 121.507 118.996 121.503C118.994 121.499 118.991 121.495 118.988 121.492C118.984 121.489 118.98 121.486 118.975 121.485C118.971 121.483 118.966 121.483 118.961 121.483C118.957 121.483 118.952 121.484 118.948 121.487C118.943 121.489 118.94 121.492 118.937 121.495C118.933 121.499 118.931 121.503 118.93 121.508C118.323 122.836 118.014 124.961 118.733 126.336C118.081 126.194 117.458 125.947 116.886 125.604C116.883 125.603 116.881 125.601 116.878 125.601C116.874 125.6 116.871 125.6 116.868 125.601C116.865 125.601 116.862 125.603 116.86 125.604C116.857 125.606 116.855 125.608 116.853 125.611C116.852 125.613 116.85 125.616 116.85 125.619C116.849 125.622 116.849 125.626 116.85 125.629C116.85 125.632 116.852 125.635 116.853 125.637C116.855 125.64 116.857 125.642 116.86 125.644C118.775 127.028 121.724 126.956 123.886 126.231C123.941 126.211 123.912 126.113 123.853 126.129C122.856 126.376 121.835 126.513 120.809 126.539C121.875 125.27 122.387 123.108 122.308 121.511C122.301 121.435 122.177 121.442 122.177 121.517ZM119.336 126.437C120.257 126.117 121.051 125.51 121.603 124.706C121.384 125.352 121.081 125.966 120.701 126.533C120.244 126.536 119.788 126.506 119.336 126.444V126.437ZM118.615 125.276C119.387 125.487 120.205 125.453 120.957 125.178C120.451 125.69 119.859 126.11 119.208 126.418C119.09 126.398 118.972 126.378 118.857 126.352C118.743 126.009 118.662 125.655 118.615 125.296V125.276ZM118.592 125.05C118.677 124.876 118.766 124.722 118.861 124.548C119.063 124.718 119.304 124.837 119.562 124.894C119.82 124.951 120.088 124.945 120.343 124.876C120.299 125.007 120.247 125.135 120.189 125.26C119.661 125.312 119.129 125.299 118.605 125.221C118.598 125.168 118.598 125.112 118.592 125.057V125.05ZM119.428 123.781C119.655 123.829 119.875 123.905 120.084 124.007C119.991 124.207 119.862 124.388 119.704 124.542C119.592 124.464 119.493 124.37 119.408 124.263C119.346 124.169 119.294 124.069 119.254 123.964C119.317 123.909 119.372 123.846 119.428 123.787V123.781ZM119.697 124.558C119.638 124.62 119.576 124.679 119.513 124.735C119.295 124.685 119.082 124.61 118.88 124.512C118.973 124.354 119.076 124.203 119.189 124.059C119.23 124.176 119.298 124.282 119.386 124.369C119.474 124.457 119.58 124.523 119.697 124.565V124.558ZM120.156 124.043C120.293 124.121 120.406 124.234 120.484 124.371C120.461 124.497 120.432 124.622 120.396 124.745C120.136 124.794 119.869 124.794 119.608 124.745C119.745 124.676 119.865 124.578 119.959 124.458C120.054 124.338 120.121 124.198 120.156 124.05V124.043ZM120.064 123.154C119.369 123.511 118.836 124.12 118.575 124.856C118.536 124.222 118.569 123.585 118.674 122.957C119.144 122.96 119.613 123.028 120.064 123.161V123.154ZM120.442 123.269C120.515 123.576 120.532 123.894 120.491 124.207C120.374 124.05 120.22 123.925 120.042 123.843C119.865 123.76 119.669 123.723 119.474 123.735C119.681 123.522 119.915 123.337 120.169 123.184C120.261 123.22 120.353 123.243 120.442 123.276V123.269ZM121.842 123.925C121.8 124.092 121.75 124.253 121.698 124.424C121.481 124.656 121.278 124.873 121.071 125.08C120.81 125.159 120.542 125.215 120.271 125.247C120.452 124.964 120.574 124.647 120.63 124.316C120.687 123.984 120.676 123.645 120.599 123.318C121.032 123.48 121.448 123.684 121.842 123.925Z" fill="black"/>
<path d="M58.3184 134.277C56.8391 133.965 55.3271 131.945 55.8191 130.167C56.3111 128.389 58.8006 127.349 60.2175 127.969C61.6345 128.589 62.6119 131.423 61.9231 132.594C61.1556 133.899 59.4074 134.51 58.3184 134.277Z" fill="#F4D03F"/>
<path opacity="0.12" d="M60.8145 127.631C60.7903 128.418 60.6803 129.2 60.4865 129.963C59.7747 129.186 58.3447 128.825 57.3115 129.019C57.3904 128.556 57.4945 128.099 57.6231 127.648C57.6265 127.639 57.6262 127.628 57.6223 127.62C57.6183 127.611 57.6109 127.604 57.6017 127.6C57.5926 127.597 57.5825 127.597 57.5735 127.601C57.5646 127.605 57.5577 127.612 57.5542 127.622C56.9441 128.95 56.6358 131.079 57.3574 132.45C56.7059 132.309 56.0821 132.062 55.5107 131.718C55.4845 131.718 55.4583 131.741 55.4812 131.758C57.3967 133.142 60.3487 133.07 62.507 132.345C62.566 132.325 62.5332 132.23 62.4742 132.243C61.4792 132.493 60.4593 132.631 59.4336 132.653C60.4996 131.384 61.008 129.222 60.9326 127.628C60.9391 127.553 60.8178 127.559 60.8145 127.631ZM57.974 132.551C58.8959 132.229 59.6909 131.621 60.2438 130.816C60.0246 131.462 59.7213 132.076 59.3418 132.643C58.8844 132.651 58.4272 132.623 57.974 132.561V132.551ZM57.2524 131.387C58.0241 131.599 58.8424 131.565 59.5943 131.292C59.0892 131.804 58.4973 132.223 57.8461 132.528L57.4951 132.466C57.3812 132.118 57.3 131.76 57.2524 131.397V131.387ZM57.2295 131.164C57.3147 130.987 57.4033 130.82 57.4984 130.659C57.7008 130.829 57.9413 130.948 58.1995 131.005C58.4576 131.062 58.7257 131.056 58.981 130.987C58.937 131.117 58.8855 131.244 58.8268 131.367C58.3004 131.421 57.7693 131.409 57.2459 131.331C57.236 131.285 57.236 131.23 57.2295 131.174V131.164ZM58.056 129.888C58.2827 129.939 58.5028 130.016 58.712 130.118C58.6177 130.315 58.4901 130.495 58.3348 130.649C58.2235 130.572 58.1241 130.479 58.0396 130.373C57.9748 130.28 57.9229 130.179 57.8855 130.072C57.9576 130.022 58.0101 129.96 58.056 129.888ZM58.325 130.669L58.1413 130.842C57.9229 130.791 57.7106 130.716 57.5083 130.619C57.6034 130.463 57.7074 130.312 57.8199 130.167C57.8605 130.286 57.928 130.395 58.0173 130.484C58.1066 130.574 58.2152 130.641 58.3348 130.682L58.325 130.669ZM58.7842 130.15C58.9202 130.229 59.0333 130.342 59.1122 130.478C59.0924 130.606 59.0628 130.732 59.0236 130.856C58.7634 130.903 58.4967 130.903 58.2364 130.856C58.3747 130.789 58.4965 130.692 58.5929 130.572C58.6893 130.452 58.758 130.313 58.794 130.164L58.7842 130.15ZM58.6923 129.262C57.9978 129.618 57.4662 130.227 57.2065 130.964C57.1672 130.33 57.2002 129.694 57.3049 129.068C57.7815 129.068 58.2556 129.137 58.712 129.275L58.6923 129.262ZM59.0728 129.376C59.1438 129.685 59.1594 130.004 59.1187 130.318C59.0022 130.16 58.8482 130.034 58.6707 129.951C58.4931 129.868 58.2976 129.83 58.1019 129.842C58.3106 129.632 58.5441 129.448 58.7973 129.294L59.0728 129.376ZM60.4701 130.032C60.4275 130.203 60.3783 130.36 60.3291 130.531C60.3291 130.531 60.3291 130.531 60.3127 130.531C60.0995 130.764 59.8928 130.98 59.6862 131.187C59.4246 131.264 59.1569 131.319 58.8859 131.351C59.0666 131.068 59.1888 130.752 59.2452 130.421C59.3015 130.091 59.2909 129.752 59.2139 129.426C59.6551 129.588 60.0792 129.793 60.4799 130.039L60.4701 130.032Z" fill="black"/>
<path d="M52.6571 115.61C54.5858 118.372 59.8371 118.89 72.9407 121.465C74.7512 121.819 80.688 109.7 78.7823 109.224C76.3682 108.62 66.8727 106.803 66.1609 106.757C60.1618 106.374 51.3484 113.741 52.6571 115.61Z" fill="#F7A9A0"/>
<path d="M76.1616 108.624C76.1616 108.624 81.7146 109.46 84.4928 110.805C88.2156 112.602 90.6887 115.689 91.6465 117.037C93.6473 119.868 96.5271 128.091 94.3 129.334C92.2893 130.459 89.7703 121.904 89.7703 121.904C89.7703 121.904 93.7785 130.203 91.1053 131.111C88.4321 132.02 86.0705 121.927 86.0705 121.927C86.0705 121.927 90.0065 130.544 87.0938 131.046C84.8995 131.426 82.246 122.4 82.246 122.4C82.246 122.4 85.5686 129.832 83.3284 130.318C80.852 130.872 77.8836 122.672 77.8836 122.672C71.9796 122.951 69.0538 120.668 67.1645 118.798C66.7086 118.352 76.1616 108.624 76.1616 108.624Z" fill="#F7A9A0"/>
<path d="M88.56 118.952C89.0651 119.91 89.5866 120.875 90.0032 121.875C90.4197 122.875 90.8068 123.889 91.1315 124.922C91.5842 126.265 91.8792 127.657 92.0105 129.068C91.5907 126.582 90.1442 122.98 89.7145 121.98C89.2849 120.98 88.9273 119.963 88.5075 118.966C88.5173 118.939 88.56 118.93 88.56 118.952Z" fill="#263238"/>
<path d="M84.9291 120.399C85.5227 121.652 86.1591 122.872 86.697 124.148C87.2349 125.424 87.6285 126.674 88.0746 127.979C88.1106 128.077 88.0451 128.064 88.0057 127.963C87.5071 126.677 86.9462 125.529 86.4346 124.246C85.9229 122.964 85.4506 121.668 84.8995 120.412C84.8897 120.392 84.9225 120.376 84.9291 120.399Z" fill="#263238"/>
<path d="M81.5868 121.081C82.5424 122.978 83.2997 124.969 83.8467 127.021C83.8795 127.12 83.7942 127.093 83.7581 126.992C83.0431 125.004 82.4986 123.44 81.5211 121.117C81.5047 121.081 81.5638 121.032 81.5868 121.081Z" fill="#263238"/>
<path d="M87.7827 112.917C88.4299 113.338 89.0341 113.821 89.5867 114.36C90.1477 114.892 90.6654 115.468 91.1348 116.082C91.3743 116.388 91.5875 116.709 91.8105 117.027C92.0335 117.345 92.2271 117.683 92.3943 118.011C92.7649 118.69 93.066 119.404 93.293 120.143C93.0995 119.815 92.9651 119.451 92.7519 119.126L92.4763 118.624C92.3812 118.46 92.2763 118.296 92.1779 118.139C91.7738 117.492 91.3358 116.867 90.8659 116.266C90.4067 115.663 89.9114 115.082 89.3997 114.521C89.1406 114.239 88.8782 113.964 88.6059 113.695C88.3337 113.426 88.068 113.176 87.7827 112.917Z" fill="#263238"/>
<path d="M77.3195 108.624L65.8395 121.416C65.8395 121.416 54.2316 118.749 52.5227 115.774C51.3976 113.806 60.1355 105.878 66.7316 106.803L77.3195 108.624Z" fill="#F4D03F"/>
<path d="M61.0375 109.283C61.0382 109.342 61.0213 109.399 60.9891 109.448C60.9569 109.497 60.9109 109.536 60.8568 109.558C60.8027 109.581 60.7431 109.587 60.6855 109.576C60.628 109.565 60.5751 109.537 60.5336 109.495C60.4921 109.454 60.4639 109.401 60.4526 109.343C60.4414 109.286 60.4475 109.226 60.4702 109.172C60.493 109.118 60.5313 109.072 60.5804 109.039C60.6294 109.007 60.6869 108.99 60.7456 108.991C60.823 108.991 60.8973 109.022 60.952 109.077C61.0068 109.131 61.0375 109.206 61.0375 109.283ZM65.4688 108.991C65.4111 108.991 65.3546 109.008 65.3066 109.04C65.2586 109.072 65.2212 109.118 65.1991 109.171C65.177 109.225 65.1712 109.283 65.1825 109.34C65.1937 109.397 65.2215 109.449 65.2624 109.489C65.3032 109.53 65.3552 109.558 65.4118 109.569C65.4685 109.581 65.5272 109.575 65.5805 109.553C65.6338 109.531 65.6794 109.493 65.7115 109.445C65.7436 109.397 65.7607 109.341 65.7607 109.283C65.7607 109.206 65.73 109.131 65.6752 109.077C65.6205 109.022 65.5462 108.991 65.4688 108.991ZM70.192 108.991C70.1344 108.992 70.0783 109.009 70.0307 109.042C69.9831 109.074 69.9462 109.12 69.9246 109.174C69.903 109.227 69.8977 109.286 69.9094 109.342C69.921 109.398 69.9491 109.45 69.99 109.491C70.031 109.531 70.083 109.559 70.1395 109.57C70.196 109.581 70.2546 109.575 70.3077 109.552C70.3609 109.53 70.4063 109.493 70.4382 109.445C70.4701 109.397 70.4872 109.341 70.4872 109.283C70.4872 109.244 70.4795 109.206 70.4647 109.171C70.4498 109.135 70.428 109.103 70.4005 109.075C70.3731 109.048 70.3405 109.027 70.3047 109.012C70.2689 108.998 70.2306 108.991 70.192 108.991ZM74.9185 108.991C74.8607 108.991 74.8043 109.008 74.7563 109.04C74.7083 109.072 74.6709 109.118 74.6488 109.171C74.6267 109.225 74.6209 109.283 74.6322 109.34C74.6434 109.397 74.6712 109.449 74.712 109.489C74.7529 109.53 74.8049 109.558 74.8615 109.569C74.9181 109.581 74.9768 109.575 75.0302 109.553C75.0835 109.531 75.1291 109.493 75.1612 109.445C75.1933 109.397 75.2104 109.341 75.2104 109.283C75.2104 109.206 75.1796 109.131 75.1249 109.077C75.0701 109.022 74.9959 108.991 74.9185 108.991ZM56.0191 115.312C55.9615 115.312 55.9054 115.33 55.8578 115.362C55.8103 115.395 55.7734 115.441 55.7518 115.494C55.7302 115.548 55.7249 115.606 55.7365 115.663C55.7481 115.719 55.7762 115.771 55.8171 115.811C55.8581 115.852 55.9101 115.879 55.9666 115.89C56.0232 115.901 56.0817 115.895 56.1348 115.873C56.188 115.851 56.2334 115.813 56.2653 115.765C56.2973 115.717 56.3143 115.661 56.3143 115.604C56.3143 115.565 56.3067 115.527 56.2918 115.491C56.2769 115.455 56.2551 115.423 56.2276 115.396C56.2002 115.369 56.1676 115.347 56.1318 115.333C56.096 115.318 56.0577 115.311 56.0191 115.312ZM60.7456 115.312C60.6878 115.312 60.6314 115.329 60.5834 115.361C60.5354 115.393 60.498 115.439 60.4759 115.492C60.4538 115.545 60.448 115.604 60.4593 115.661C60.4705 115.717 60.4983 115.769 60.5392 115.81C60.58 115.851 60.632 115.879 60.6886 115.89C60.7453 115.901 60.804 115.895 60.8573 115.873C60.9106 115.851 60.9562 115.814 60.9883 115.766C61.0204 115.718 61.0375 115.661 61.0375 115.604C61.0375 115.526 61.0068 115.452 60.952 115.397C60.8973 115.342 60.823 115.312 60.7456 115.312ZM65.4688 115.312C65.4111 115.312 65.3546 115.329 65.3066 115.361C65.2586 115.393 65.2212 115.439 65.1991 115.492C65.177 115.545 65.1712 115.604 65.1825 115.661C65.1937 115.717 65.2215 115.769 65.2624 115.81C65.3032 115.851 65.3552 115.879 65.4118 115.89C65.4685 115.901 65.5272 115.895 65.5805 115.873C65.6338 115.851 65.6794 115.814 65.7115 115.766C65.7436 115.718 65.7607 115.661 65.7607 115.604C65.7607 115.526 65.73 115.452 65.6752 115.397C65.6205 115.342 65.5462 115.312 65.4688 115.312ZM70.192 115.312C70.1344 115.312 70.0783 115.33 70.0307 115.362C69.9831 115.395 69.9462 115.441 69.9246 115.494C69.903 115.548 69.8977 115.606 69.9094 115.663C69.921 115.719 69.9491 115.771 69.99 115.811C70.031 115.852 70.083 115.879 70.1395 115.89C70.196 115.901 70.2546 115.895 70.3077 115.873C70.3609 115.851 70.4063 115.813 70.4382 115.765C70.4701 115.717 70.4872 115.661 70.4872 115.604C70.4872 115.565 70.4795 115.527 70.4647 115.491C70.4498 115.455 70.428 115.423 70.4005 115.396C70.3731 115.369 70.3405 115.347 70.3047 115.333C70.2689 115.318 70.2306 115.311 70.192 115.312ZM58.384 112.284C58.3255 112.284 58.2683 112.302 58.2196 112.334C58.171 112.367 58.1332 112.413 58.111 112.467C58.0887 112.521 58.0831 112.581 58.0947 112.638C58.1064 112.696 58.1348 112.748 58.1764 112.789C58.218 112.83 58.271 112.858 58.3284 112.869C58.3859 112.88 58.4454 112.874 58.4992 112.851C58.5531 112.828 58.599 112.79 58.631 112.741C58.6631 112.692 58.6798 112.635 58.6792 112.576C58.6792 112.538 58.6715 112.499 58.6567 112.464C58.6418 112.428 58.62 112.396 58.5925 112.369C58.5651 112.341 58.5325 112.32 58.4967 112.306C58.4609 112.291 58.4226 112.284 58.384 112.284ZM63.1105 112.284C63.0518 112.284 62.9943 112.3 62.9452 112.333C62.8962 112.365 62.8579 112.411 62.8351 112.465C62.8124 112.519 62.8062 112.579 62.8175 112.636C62.8288 112.694 62.857 112.747 62.8985 112.788C62.9399 112.83 62.9928 112.858 63.0504 112.869C63.108 112.88 63.1676 112.874 63.2217 112.852C63.2757 112.829 63.3218 112.79 63.354 112.741C63.3862 112.692 63.403 112.635 63.4024 112.576C63.4024 112.538 63.3947 112.499 63.3799 112.464C63.365 112.428 63.3432 112.396 63.3157 112.369C63.2883 112.341 63.2557 112.32 63.2199 112.306C63.1841 112.291 63.1458 112.284 63.1072 112.284H63.1105ZM67.8337 112.284C67.7751 112.284 67.7179 112.302 67.6693 112.334C67.6207 112.367 67.5829 112.413 67.5606 112.467C67.5384 112.521 67.5327 112.581 67.5444 112.638C67.5561 112.696 67.5845 112.748 67.6261 112.789C67.6677 112.83 67.7206 112.858 67.7781 112.869C67.8356 112.88 67.895 112.874 67.9489 112.851C68.0028 112.828 68.0487 112.79 68.0807 112.741C68.1128 112.692 68.1295 112.635 68.1289 112.576C68.1289 112.537 68.1211 112.499 68.106 112.463C68.091 112.427 68.0689 112.395 68.0411 112.367C68.0133 112.34 67.9803 112.319 67.9441 112.305C67.9079 112.29 67.8693 112.283 67.8304 112.284H67.8337ZM72.5601 112.284C72.5015 112.284 72.444 112.3 72.3949 112.333C72.3459 112.365 72.3075 112.411 72.2848 112.465C72.262 112.519 72.2559 112.579 72.2672 112.636C72.2785 112.694 72.3067 112.747 72.3481 112.788C72.3896 112.83 72.4425 112.858 72.5001 112.869C72.5577 112.88 72.6173 112.874 72.6714 112.852C72.7254 112.829 72.7715 112.79 72.8037 112.741C72.8359 112.692 72.8527 112.635 72.8521 112.576C72.8521 112.538 72.8444 112.499 72.8295 112.464C72.8147 112.428 72.7929 112.396 72.7654 112.369C72.738 112.341 72.7054 112.32 72.6696 112.306C72.6338 112.291 72.5955 112.284 72.5569 112.284H72.5601ZM58.384 118.605C58.3255 118.605 58.2683 118.622 58.2196 118.655C58.171 118.687 58.1332 118.734 58.111 118.788C58.0887 118.842 58.0831 118.901 58.0947 118.959C58.1064 119.016 58.1348 119.069 58.1764 119.11C58.218 119.151 58.271 119.179 58.3284 119.19C58.3859 119.201 58.4454 119.195 58.4992 119.172C58.5531 119.149 58.599 119.111 58.631 119.062C58.6631 119.013 58.6798 118.955 58.6792 118.897C58.6792 118.858 58.6715 118.82 58.6567 118.784C58.6418 118.749 58.62 118.716 58.5925 118.689C58.5651 118.662 58.5325 118.641 58.4967 118.626C58.4609 118.612 58.4226 118.604 58.384 118.605ZM63.1105 118.605C63.0518 118.604 62.9943 118.621 62.9452 118.653C62.8962 118.685 62.8579 118.731 62.8351 118.785C62.8124 118.84 62.8062 118.899 62.8175 118.957C62.8288 119.014 62.857 119.067 62.8985 119.109C62.9399 119.15 62.9928 119.178 63.0504 119.19C63.108 119.201 63.1676 119.195 63.2217 119.172C63.2757 119.149 63.3218 119.111 63.354 119.062C63.3862 119.013 63.403 118.955 63.4024 118.897C63.4024 118.858 63.3947 118.82 63.3799 118.784C63.365 118.749 63.3432 118.716 63.3157 118.689C63.2883 118.662 63.2557 118.641 63.2199 118.626C63.1841 118.612 63.1458 118.604 63.1072 118.605H63.1105ZM67.8369 118.605C67.7587 118.605 67.6836 118.636 67.6282 118.691C67.5728 118.747 67.5417 118.822 67.5417 118.9C67.5417 118.939 67.5494 118.977 67.5643 119.012C67.5792 119.048 67.601 119.08 67.6284 119.108C67.6559 119.135 67.6884 119.156 67.7242 119.171C67.76 119.185 67.7983 119.192 67.8369 119.192L68.1256 118.864C68.1175 118.792 68.0834 118.726 68.0296 118.677C67.9757 118.629 67.906 118.602 67.8337 118.602L67.8369 118.605Z" fill="#87C159"/>
<path d="M58.8662 108.873C59.9289 108.102 62.9235 106.305 66.7382 106.784C66.771 106.784 66.7743 106.843 66.7382 106.839C63.8583 106.757 59.9715 108.263 58.8662 108.919C58.8629 108.935 58.8399 108.896 58.8662 108.873Z" fill="#263238"/>
<path d="M62.7038 119.264C63.8911 117.791 65.1539 116.384 66.4233 114.98C67.6927 113.577 68.9587 112.166 70.2642 110.792C70.9989 110.014 71.7336 109.234 72.4979 108.496C72.5175 108.476 72.5536 108.496 72.5372 108.529C71.3531 109.998 70.0903 111.415 68.8341 112.825C67.5779 114.236 66.2987 115.64 65.0129 117.03C64.2847 117.814 63.5435 118.585 62.7792 119.326C62.7399 119.362 62.671 119.307 62.7038 119.264Z" fill="#263238"/>
<path d="M77.3424 108.456C76.6372 108.244 75.9183 108.081 75.1907 107.968C74.4658 107.83 73.7377 107.709 73.0128 107.591C71.5663 107.358 68.5258 106.702 65.8526 106.708C65.823 106.708 65.9739 106.853 66.0034 106.853C67.2761 106.784 76.3945 108.598 77.1554 108.65C77.1249 108.698 77.0975 108.749 77.0734 108.801C77.0734 108.84 77.0964 108.886 77.1358 108.86C77.2309 108.798 77.2965 108.719 77.385 108.65C77.402 108.638 77.415 108.621 77.4224 108.601C77.4298 108.581 77.4314 108.56 77.4269 108.539C77.4223 108.519 77.412 108.5 77.397 108.485C77.382 108.471 77.363 108.461 77.3424 108.456Z" fill="#263238"/>
<path d="M86.6576 84.296C97.6259 93.8638 106.252 105.685 105.682 108.64C104.648 114.144 97.416 114.488 96.3074 113.298C91.8662 108.486 87.1791 99.1642 82.1017 88.7634C77.5654 79.4678 83.0463 81.1505 86.6576 84.296Z" fill="#F4D03F"/>
<path d="M84.6601 84.0008C84.6607 84.0595 84.6439 84.117 84.6117 84.166C84.5795 84.2151 84.5334 84.2534 84.4794 84.2762C84.4253 84.2989 84.3657 84.305 84.3081 84.2937C84.2505 84.2825 84.1976 84.2543 84.1562 84.2128C84.1147 84.1713 84.0865 84.1184 84.0752 84.0608C84.0639 84.0033 84.0701 83.9437 84.0928 83.8896C84.1155 83.8355 84.1539 83.7894 84.2029 83.7573C84.252 83.7251 84.3095 83.7082 84.3682 83.7089C84.4456 83.7089 84.5198 83.7396 84.5746 83.7944C84.6293 83.8491 84.6601 83.9234 84.6601 84.0008ZM84.3682 90.0294C84.3095 90.0288 84.252 90.0456 84.2029 90.0778C84.1539 90.11 84.1155 90.1561 84.0928 90.2101C84.0701 90.2642 84.0639 90.3238 84.0752 90.3814C84.0865 90.439 84.1147 90.4919 84.1562 90.5334C84.1976 90.5748 84.2505 90.603 84.3081 90.6143C84.3657 90.6256 84.4253 90.6195 84.4794 90.5967C84.5334 90.574 84.5795 90.5356 84.6117 90.4866C84.6439 90.4375 84.6607 90.38 84.6601 90.3214C84.6601 90.2439 84.6293 90.1697 84.5746 90.1149C84.5198 90.0602 84.4456 90.0294 84.3682 90.0294ZM89.0914 90.0294C89.0328 90.0294 88.9756 90.0468 88.927 90.0794C88.8784 90.112 88.8406 90.1583 88.8183 90.2124C88.7961 90.2666 88.7904 90.3261 88.8021 90.3834C88.8138 90.4408 88.8422 90.4934 88.8838 90.5345C88.9254 90.5757 88.9783 90.6035 89.0358 90.6146C89.0933 90.6256 89.1527 90.6193 89.2066 90.5964C89.2605 90.5736 89.3064 90.5352 89.3384 90.4862C89.3704 90.4373 89.3872 90.3799 89.3866 90.3214C89.3866 90.2827 89.3789 90.2445 89.364 90.2089C89.3491 90.1733 89.3274 90.1409 89.2999 90.1138C89.2724 90.0866 89.2399 90.0652 89.2041 90.0507C89.1683 90.0362 89.13 90.029 89.0914 90.0294ZM82 87.002C81.9413 87.0014 81.8838 87.0182 81.8348 87.0504C81.7857 87.0826 81.7474 87.1286 81.7246 87.1827C81.7019 87.2368 81.6958 87.2964 81.7071 87.354C81.7183 87.4115 81.7465 87.4644 81.788 87.5059C81.8295 87.5474 81.8824 87.5756 81.9399 87.5869C81.9975 87.5982 82.0571 87.592 82.1112 87.5693C82.1653 87.5465 82.2114 87.5082 82.2435 87.4591C82.2757 87.4101 82.2926 87.3526 82.2919 87.2939C82.2919 87.2165 82.2612 87.1422 82.2064 87.0875C82.1517 87.0328 82.0774 87.002 82 87.002ZM86.7232 87.002C86.6645 87.0014 86.607 87.0182 86.558 87.0504C86.5089 87.0826 86.4706 87.1286 86.4478 87.1827C86.4251 87.2368 86.419 87.2964 86.4303 87.354C86.4415 87.4115 86.4697 87.4644 86.5112 87.5059C86.5527 87.5474 86.6056 87.5756 86.6631 87.5869C86.7207 87.5982 86.7803 87.592 86.8344 87.5693C86.8885 87.5465 86.9345 87.5082 86.9667 87.4591C86.9989 87.4101 87.0158 87.3526 87.0151 87.2939C87.0151 87.2176 86.9853 87.1443 86.932 87.0898C86.8786 87.0352 86.806 87.0037 86.7298 87.002H86.7232ZM89.0848 96.35C89.0263 96.35 88.9691 96.3674 88.9205 96.4C88.8718 96.4326 88.834 96.4789 88.8118 96.533C88.7895 96.5871 88.7839 96.6467 88.7955 96.704C88.8072 96.7614 88.8356 96.8139 88.8772 96.8551C88.9189 96.8963 88.9718 96.9241 89.0292 96.9351C89.0867 96.9461 89.1462 96.9398 89.2001 96.917C89.2539 96.8941 89.2998 96.8558 89.3319 96.8068C89.3639 96.7578 89.3806 96.7004 89.38 96.6419C89.38 96.5651 89.3497 96.4913 89.2957 96.4367C89.2416 96.382 89.1682 96.3509 89.0914 96.35H89.0848ZM93.8113 96.35C93.7526 96.3493 93.6951 96.3662 93.6461 96.3984C93.597 96.4306 93.5587 96.4766 93.5359 96.5307C93.5132 96.5848 93.507 96.6444 93.5183 96.702C93.5296 96.7595 93.5578 96.8124 93.5993 96.8539C93.6408 96.8954 93.6937 96.9236 93.7512 96.9349C93.8088 96.9462 93.8684 96.94 93.9225 96.9173C93.9766 96.8945 94.0226 96.8562 94.0548 96.8071C94.087 96.7581 94.1038 96.7006 94.1032 96.6419C94.1032 96.6033 94.0955 96.5651 94.0807 96.5294C94.0658 96.4938 94.044 96.4615 94.0165 96.4343C93.9891 96.4072 93.9565 96.3857 93.9207 96.3713C93.8849 96.3568 93.8466 96.3496 93.808 96.35H93.8113ZM98.4328 96.3664C98.3769 96.3877 98.3288 96.4254 98.2948 96.4746C98.2609 96.5238 98.2426 96.5821 98.2426 96.6419C98.2426 96.7193 98.2733 96.7936 98.3281 96.8483C98.3828 96.9031 98.4571 96.9338 98.5345 96.9338C98.5851 96.9337 98.6348 96.9206 98.679 96.896C98.7232 96.8713 98.7603 96.8358 98.787 96.7928L98.4328 96.3664ZM86.7232 93.3226C86.6645 93.3219 86.607 93.3388 86.558 93.3709C86.5089 93.4031 86.4706 93.4492 86.4478 93.5033C86.4251 93.5573 86.419 93.617 86.4303 93.6745C86.4415 93.7321 86.4697 93.785 86.5112 93.8265C86.5527 93.868 86.6056 93.8961 86.6631 93.9074C86.7207 93.9187 86.7803 93.9126 86.8344 93.8898C86.8885 93.8671 86.9345 93.8287 86.9667 93.7797C86.9989 93.7307 87.0158 93.6731 87.0151 93.6145C87.0151 93.5382 86.9853 93.4649 86.932 93.4103C86.8786 93.3558 86.806 93.3243 86.7298 93.3226H86.7232ZM91.4464 93.3226C91.3879 93.3226 91.3307 93.34 91.2821 93.3725C91.2334 93.4051 91.1956 93.4514 91.1734 93.5056C91.1511 93.5597 91.1455 93.6192 91.1571 93.6766C91.1688 93.7339 91.1972 93.7865 91.2389 93.8277C91.2805 93.8688 91.3334 93.8967 91.3908 93.9077C91.4483 93.9187 91.5078 93.9124 91.5617 93.8895C91.6155 93.8667 91.6614 93.8283 91.6935 93.7794C91.7255 93.7304 91.7423 93.673 91.7416 93.6145C91.7416 93.5376 91.7113 93.4639 91.6573 93.4092C91.6032 93.3546 91.5298 93.3234 91.453 93.3226H91.4464ZM95.9236 93.4603C95.8958 93.5069 95.8811 93.5602 95.881 93.6145C95.8805 93.6531 95.8878 93.6914 95.9022 93.7272C95.9167 93.763 95.9381 93.7956 95.9653 93.823C95.9924 93.8505 96.0248 93.8723 96.0604 93.8871C96.096 93.902 96.1343 93.9097 96.1729 93.9097C96.2148 93.9103 96.2563 93.9013 96.2942 93.8834C96.1794 93.7391 96.0548 93.6014 95.9302 93.4603H95.9236ZM89.216 102.69C89.2783 102.798 89.3341 102.907 89.3931 103.018C89.3946 103.002 89.3946 102.985 89.3931 102.969C89.3957 102.91 89.3801 102.852 89.3484 102.802C89.3167 102.752 89.2705 102.713 89.216 102.69ZM93.808 102.664C93.7493 102.663 93.6918 102.68 93.6428 102.712C93.5937 102.745 93.5554 102.791 93.5326 102.845C93.5099 102.899 93.5038 102.958 93.5151 103.016C93.5263 103.074 93.5545 103.126 93.596 103.168C93.6375 103.209 93.6904 103.238 93.748 103.249C93.8055 103.26 93.8651 103.254 93.9192 103.231C93.9733 103.209 94.0194 103.17 94.0515 103.121C94.0837 103.072 94.1006 103.015 94.0999 102.956C94.0999 102.879 94.0692 102.804 94.0144 102.75C93.9597 102.695 93.8854 102.664 93.808 102.664ZM98.5312 102.664C98.4725 102.663 98.415 102.68 98.366 102.712C98.3169 102.745 98.2786 102.791 98.2558 102.845C98.2331 102.899 98.227 102.958 98.2383 103.016C98.2495 103.074 98.2777 103.126 98.3192 103.168C98.3607 103.209 98.4136 103.238 98.4711 103.249C98.5287 103.26 98.5883 103.254 98.6424 103.231C98.6965 103.209 98.7425 103.17 98.7747 103.121C98.8069 103.072 98.8238 103.015 98.8231 102.956C98.8232 102.88 98.7938 102.807 98.7411 102.753C98.6885 102.698 98.6167 102.667 98.541 102.664H98.5312ZM103.143 102.684C103.082 102.711 103.032 102.759 103.002 102.818C102.971 102.878 102.962 102.946 102.975 103.012C102.988 103.077 103.024 103.136 103.075 103.179C103.126 103.222 103.191 103.246 103.258 103.248C103.331 103.248 103.403 103.221 103.458 103.172C103.366 103.018 103.261 102.854 103.153 102.69L103.143 102.684ZM91.4431 99.6366C91.3846 99.6366 91.3274 99.654 91.2788 99.6865C91.2302 99.7191 91.1923 99.7654 91.1701 99.8196C91.1478 99.8737 91.1422 99.9332 91.1538 99.9906C91.1655 100.048 91.194 100.101 91.2356 100.142C91.2772 100.183 91.3301 100.211 91.3876 100.222C91.445 100.233 91.5045 100.226 91.5584 100.204C91.6123 100.181 91.6581 100.142 91.6902 100.093C91.7222 100.044 91.739 99.987 91.7383 99.9285C91.7366 99.8533 91.706 99.7817 91.6529 99.7285C91.5997 99.6754 91.5281 99.6448 91.453 99.6431L91.4431 99.6366ZM96.1696 99.6366C96.1109 99.6359 96.0534 99.6528 96.0044 99.6849C95.9553 99.7171 95.917 99.7632 95.8942 99.8173C95.8715 99.8713 95.8654 99.931 95.8766 99.9885C95.8879 100.046 95.9161 100.099 95.9576 100.14C95.9991 100.182 96.052 100.21 96.1095 100.221C96.1671 100.233 96.2267 100.227 96.2808 100.204C96.3349 100.181 96.381 100.143 96.4131 100.094C96.4453 100.045 96.4622 99.9871 96.4615 99.9285C96.4599 99.8539 96.4297 99.7827 96.3773 99.7297C96.3248 99.6766 96.254 99.6456 96.1794 99.6431L96.1696 99.6366ZM101.185 99.8694L101.047 99.689C101.002 99.6627 100.951 99.6491 100.899 99.6497C100.827 99.6574 100.76 99.6916 100.711 99.7458C100.662 99.8 100.635 99.8703 100.635 99.9432C100.635 100.016 100.662 100.086 100.711 100.141C100.76 100.195 100.827 100.229 100.899 100.237C100.977 100.236 101.051 100.205 101.106 100.151C101.161 100.096 101.193 100.022 101.195 99.9449C101.197 99.922 101.197 99.8989 101.195 99.876L101.185 99.8694ZM93.808 108.991C93.7503 108.991 93.6938 109.008 93.6458 109.04C93.5978 109.072 93.5604 109.118 93.5383 109.171C93.5162 109.225 93.5104 109.283 93.5217 109.34C93.533 109.397 93.5608 109.449 93.6016 109.489C93.6424 109.53 93.6944 109.558 93.751 109.569C93.8077 109.581 93.8664 109.575 93.9197 109.553C93.9731 109.531 94.0187 109.493 94.0507 109.445C94.0828 109.397 94.0999 109.341 94.0999 109.283C94.0999 109.206 94.0692 109.131 94.0144 109.077C93.9597 109.022 93.8854 108.991 93.808 108.991ZM98.5312 108.991C98.4735 108.991 98.417 109.008 98.369 109.04C98.321 109.072 98.2836 109.118 98.2615 109.171C98.2394 109.225 98.2336 109.283 98.2449 109.34C98.2562 109.397 98.284 109.449 98.3248 109.489C98.3656 109.53 98.4176 109.558 98.4743 109.569C98.5309 109.581 98.5896 109.575 98.6429 109.553C98.6963 109.531 98.7418 109.493 98.7739 109.445C98.806 109.397 98.8231 109.341 98.8231 109.283C98.8232 109.207 98.7938 109.134 98.7411 109.08C98.6885 109.026 98.6167 108.994 98.541 108.991H98.5312ZM103.258 108.991C103.2 108.991 103.144 109.008 103.096 109.04C103.047 109.072 103.01 109.118 102.988 109.171C102.966 109.225 102.96 109.283 102.971 109.34C102.983 109.397 103.01 109.449 103.051 109.489C103.092 109.53 103.144 109.558 103.201 109.569C103.257 109.581 103.316 109.575 103.369 109.553C103.423 109.531 103.468 109.493 103.5 109.445C103.532 109.397 103.55 109.341 103.55 109.283C103.55 109.207 103.52 109.134 103.468 109.08C103.415 109.026 103.343 108.994 103.268 108.991H103.258ZM91.4497 105.964C91.3912 105.964 91.334 105.981 91.2853 106.014C91.2367 106.046 91.1989 106.093 91.1767 106.147C91.1544 106.201 91.1488 106.26 91.1604 106.318C91.1721 106.375 91.2005 106.428 91.2421 106.469C91.2837 106.51 91.3366 106.538 91.3941 106.549C91.4516 106.56 91.5111 106.553 91.5649 106.531C91.6188 106.508 91.6647 106.469 91.6967 106.42C91.7288 106.372 91.7455 106.314 91.7449 106.256C91.7449 106.178 91.7141 106.104 91.6594 106.049C91.6046 105.994 91.5304 105.964 91.453 105.964H91.4497ZM96.1762 105.964C96.1175 105.963 96.06 105.98 96.0109 106.012C95.9619 106.044 95.9235 106.09 95.9008 106.144C95.8781 106.198 95.8719 106.258 95.8832 106.316C95.8945 106.373 95.9227 106.426 95.9642 106.468C96.0056 106.509 96.0585 106.537 96.1161 106.549C96.1737 106.56 96.2333 106.554 96.2874 106.531C96.3414 106.508 96.3875 106.47 96.4197 106.421C96.4519 106.372 96.4687 106.314 96.4681 106.256C96.4681 106.179 96.4378 106.105 96.3837 106.05C96.3297 105.996 96.2563 105.965 96.1794 105.964H96.1762ZM100.899 105.964C100.841 105.964 100.784 105.981 100.735 106.014C100.686 106.046 100.649 106.093 100.626 106.147C100.604 106.201 100.598 106.26 100.61 106.318C100.622 106.375 100.65 106.428 100.692 106.469C100.733 106.51 100.786 106.538 100.844 106.549C100.901 106.56 100.961 106.553 101.015 106.531C101.069 106.508 101.114 106.469 101.146 106.42C101.178 106.372 101.195 106.314 101.195 106.256C101.195 106.178 101.164 106.104 101.109 106.049C101.054 105.994 100.98 105.964 100.903 105.964H100.899ZM96.1762 112.284C96.1175 112.284 96.06 112.3 96.0109 112.333C95.9619 112.365 95.9235 112.411 95.9008 112.465C95.8781 112.519 95.8719 112.579 95.8832 112.636C95.8945 112.694 95.9227 112.747 95.9642 112.788C96.0056 112.83 96.0585 112.858 96.1161 112.869C96.1737 112.88 96.2333 112.874 96.2874 112.852C96.3414 112.829 96.3875 112.79 96.4197 112.741C96.4519 112.692 96.4687 112.635 96.4681 112.576C96.4681 112.499 96.4378 112.426 96.3837 112.371C96.3297 112.316 96.2563 112.285 96.1794 112.284H96.1762ZM100.899 112.284C100.841 112.284 100.784 112.302 100.735 112.334C100.686 112.367 100.649 112.413 100.626 112.467C100.604 112.521 100.598 112.581 100.61 112.638C100.622 112.696 100.65 112.748 100.692 112.789C100.733 112.83 100.786 112.858 100.844 112.869C100.901 112.88 100.961 112.874 101.015 112.851C101.069 112.828 101.114 112.79 101.146 112.741C101.178 112.692 101.195 112.635 101.195 112.576C101.195 112.499 101.164 112.424 101.109 112.37C101.054 112.315 100.98 112.284 100.903 112.284H100.899Z" fill="#87C159"/>
<path d="M94.4968 111.149C93.6932 109.903 92.9355 108.617 92.168 107.345C91.4005 106.072 90.6395 104.793 89.8917 103.507C88.4157 100.965 87.0446 98.3672 85.7228 95.7432C84.975 94.2574 84.214 92.7912 83.5022 91.2758C83.4793 91.2266 83.4006 91.2758 83.417 91.3119C84.1058 93.0613 84.847 94.7822 85.6408 96.4746L85.608 96.432C85.4309 96.1926 85.2538 95.9531 85.0799 95.7104C84.7355 95.2315 84.4239 94.7428 84.0959 94.241C84.073 94.2016 84.0106 94.241 84.0336 94.2803C84.3884 94.9629 84.7895 95.6205 85.2341 96.2483C85.4513 96.5418 85.6857 96.8221 85.936 97.088L85.959 97.1077C86.323 97.8621 86.6937 98.6132 87.084 99.3578C88.4454 102.002 89.9386 104.577 91.5579 107.072C92.0171 107.771 92.4796 108.466 92.9618 109.152C93.4439 109.837 93.9458 110.5 94.4574 111.176C94.464 111.218 94.523 111.192 94.4968 111.149Z" fill="#263238"/>
<path d="M98.1245 112.232C96.045 109.25 97.088 103.32 99.384 89.0848C99.712 87.1168 114.649 86.9626 114.42 89.0848C114.131 91.7547 111.468 102.306 110.775 103.845C107.374 111.454 99.5316 114.256 98.1245 112.232Z" fill="#F7A9A0"/>
<path d="M113.934 90.9216C114.554 89.3275 117.404 80.4912 117.542 78.251C117.68 76.0107 117.631 69.5327 115.925 69.2506C114.219 68.9686 114.085 70.8644 114.085 70.8644C114.085 70.8644 113.629 68.1322 111.887 68.001C110.146 67.8698 110.031 70.8316 110.031 70.8316C110.031 70.8316 109.358 68.06 107.61 68.0567C105.862 68.0534 106.272 71.0448 106.272 71.0448C106.272 71.0448 105.773 68.4831 104.334 69.0768C102.602 69.7984 104.051 74.4199 103.707 76.8799C103.628 77.4408 101.319 88.0975 101.319 88.0975L113.934 90.9216Z" fill="#F7A9A0"/>
<path d="M106.226 70.789C107.286 74.1903 107.161 75.8598 106.256 79.2448C106.239 79.3137 106.334 79.353 106.357 79.2874C107.545 76.0501 107.997 73.9771 106.39 70.7299C106.311 70.5692 106.177 70.6282 106.226 70.789Z" fill="#263238"/>
<path d="M109.949 70.5626C110.739 74.1903 110.621 76.0042 109.949 79.622C109.949 79.6712 110.028 79.6942 110.041 79.6417C111.025 76.1518 111.422 74.0657 110.156 70.5528C110.08 70.3921 109.913 70.3986 109.949 70.5626Z" fill="#263238"/>
<path d="M114.052 71.0448C114.564 74.6134 114.518 76.6208 113.396 80.032C113.39 80.0485 113.39 80.067 113.397 80.0833C113.404 80.0996 113.417 80.1124 113.434 80.1189C113.45 80.1254 113.469 80.1251 113.485 80.1181C113.501 80.111 113.514 80.0977 113.521 80.0812C115 76.6995 115.076 74.2133 114.157 71.0415C114.098 70.825 114.019 70.8218 114.052 71.0448Z" fill="#263238"/>
<path d="M99.1675 90.8855C99.1675 90.8855 97.9834 86.5854 97.8818 84.5781C97.7801 82.5707 100.148 74.9644 101.818 75.3941C103.979 75.9353 103.477 80.5994 102.933 82.8495C102.933 82.8495 107.932 84.0959 108.296 87.5202C108.66 90.9445 99.1675 90.8855 99.1675 90.8855Z" fill="#F7A9A0"/>
<path d="M102.369 75.7254C103.983 77.6376 103.077 80.547 102.697 82.7708C102.69 82.8033 102.69 82.837 102.699 82.8692C102.708 82.9013 102.724 82.9308 102.747 82.9553C102.769 82.9798 102.797 82.9985 102.829 83.0097C102.86 83.021 102.893 83.0246 102.926 83.0201C104.986 83.6761 107.702 85.2144 108.371 87.3956C108.376 87.4073 108.384 87.417 108.395 87.4231C108.406 87.4292 108.418 87.4313 108.43 87.4289C108.443 87.4265 108.454 87.4199 108.461 87.4102C108.469 87.4005 108.473 87.3884 108.473 87.3759C108.073 84.9356 105.521 83.2103 103.225 82.633C103.635 80.3567 104.416 77.385 102.369 75.709C102.372 75.6991 102.356 75.7122 102.369 75.7254Z" fill="#263238"/>
<path d="M114.656 93.9064L97.3209 98.8264C97.3209 98.8264 93.8638 110.188 96.0614 113.039C98.4131 116.086 109.326 111.363 111.497 104.724L114.656 93.9064Z" fill="#F4D03F"/>
<path d="M108.283 96.6419C108.283 96.6997 108.266 96.7561 108.233 96.8041C108.201 96.8521 108.156 96.8895 108.102 96.9116C108.049 96.9337 107.99 96.9395 107.934 96.9282C107.877 96.917 107.825 96.8892 107.784 96.8483C107.744 96.8075 107.716 96.7555 107.704 96.6989C107.693 96.6422 107.699 96.5835 107.721 96.5302C107.743 96.4769 107.781 96.4313 107.829 96.3992C107.877 96.3671 107.933 96.35 107.991 96.35C108.068 96.35 108.142 96.3808 108.197 96.4355C108.252 96.4902 108.283 96.5645 108.283 96.6419ZM112.714 96.35C112.655 96.35 112.598 96.3674 112.55 96.4C112.501 96.4326 112.463 96.4789 112.441 96.533C112.419 96.5871 112.413 96.6466 112.425 96.704C112.436 96.7614 112.465 96.8139 112.506 96.8551C112.548 96.8962 112.601 96.9241 112.658 96.9351C112.716 96.9461 112.775 96.9398 112.829 96.917C112.883 96.8941 112.929 96.8558 112.961 96.8068C112.993 96.7578 113.01 96.7004 113.009 96.6419C113.009 96.6033 113.001 96.5651 112.987 96.5294C112.972 96.4938 112.95 96.4615 112.922 96.4343C112.895 96.4072 112.862 96.3857 112.827 96.3713C112.791 96.3568 112.753 96.3496 112.714 96.35ZM98.5411 102.664C98.4824 102.663 98.4249 102.68 98.3758 102.712C98.3268 102.745 98.2885 102.791 98.2657 102.845C98.243 102.899 98.2368 102.958 98.2481 103.016C98.2594 103.074 98.2876 103.126 98.3291 103.168C98.3706 103.209 98.4235 103.238 98.481 103.249C98.5386 103.26 98.5982 103.254 98.6523 103.231C98.7064 103.209 98.7524 103.17 98.7846 103.121C98.8168 103.072 98.8336 103.015 98.833 102.956C98.833 102.878 98.8022 102.804 98.7475 102.749C98.6927 102.695 98.6185 102.664 98.5411 102.664ZM103.268 102.664C103.209 102.663 103.151 102.68 103.102 102.712C103.053 102.745 103.015 102.791 102.992 102.845C102.969 102.899 102.963 102.958 102.975 103.016C102.986 103.074 103.014 103.126 103.056 103.168C103.097 103.209 103.15 103.238 103.208 103.249C103.265 103.26 103.325 103.254 103.379 103.231C103.433 103.209 103.479 103.17 103.511 103.121C103.543 103.072 103.56 103.015 103.559 102.956C103.559 102.878 103.529 102.804 103.474 102.749C103.419 102.695 103.345 102.664 103.268 102.664ZM107.991 102.664C107.932 102.663 107.875 102.68 107.826 102.712C107.776 102.745 107.738 102.791 107.715 102.845C107.693 102.899 107.687 102.958 107.698 103.016C107.709 103.074 107.737 103.126 107.779 103.168C107.82 103.209 107.873 103.238 107.931 103.249C107.988 103.26 108.048 103.254 108.102 103.231C108.156 103.209 108.202 103.17 108.234 103.121C108.266 103.072 108.283 103.015 108.283 102.956C108.283 102.878 108.252 102.804 108.197 102.749C108.142 102.695 108.068 102.664 107.991 102.664ZM100.903 99.6366C100.844 99.6366 100.787 99.654 100.738 99.6865C100.69 99.7191 100.652 99.7654 100.63 99.8196C100.607 99.8737 100.602 99.9332 100.613 99.9906C100.625 100.048 100.654 100.101 100.695 100.142C100.737 100.183 100.79 100.211 100.847 100.222C100.905 100.233 100.964 100.226 101.018 100.204C101.072 100.181 101.118 100.142 101.15 100.093C101.182 100.044 101.199 99.987 101.198 99.9285C101.196 99.8516 101.164 99.7786 101.109 99.7251C101.054 99.6717 100.98 99.6422 100.903 99.6431V99.6366ZM105.629 99.6366C105.57 99.6359 105.513 99.6528 105.464 99.6849C105.415 99.7171 105.377 99.7632 105.354 99.8173C105.331 99.8713 105.325 99.931 105.336 99.9885C105.347 100.046 105.376 100.099 105.417 100.14C105.459 100.182 105.512 100.21 105.569 100.221C105.627 100.233 105.686 100.227 105.74 100.204C105.794 100.181 105.841 100.143 105.873 100.094C105.905 100.045 105.922 99.9871 105.921 99.9285C105.92 99.8896 105.912 99.8512 105.896 99.8157C105.88 99.7801 105.857 99.7481 105.829 99.7216C105.8 99.695 105.767 99.6743 105.73 99.6609C105.694 99.6474 105.655 99.6414 105.616 99.6431L105.629 99.6366ZM110.352 99.6366C110.294 99.6366 110.237 99.654 110.188 99.6865C110.139 99.7191 110.102 99.7654 110.079 99.8196C110.057 99.8737 110.051 99.9332 110.063 99.9906C110.075 100.048 110.103 100.101 110.145 100.142C110.186 100.183 110.239 100.211 110.297 100.222C110.354 100.233 110.414 100.226 110.468 100.204C110.521 100.181 110.567 100.142 110.599 100.093C110.631 100.044 110.648 99.987 110.648 99.9285C110.646 99.8516 110.614 99.7786 110.559 99.7251C110.503 99.6717 110.429 99.6422 110.352 99.6431V99.6366ZM98.5444 108.985C98.4866 108.985 98.4302 109.002 98.3822 109.034C98.3342 109.066 98.2967 109.111 98.2747 109.165C98.2526 109.218 98.2468 109.277 98.258 109.333C98.2693 109.39 98.2971 109.442 98.3379 109.483C98.3788 109.524 98.4308 109.552 98.4874 109.563C98.544 109.574 98.6027 109.568 98.6561 109.546C98.7094 109.524 98.755 109.487 98.7871 109.439C98.8192 109.391 98.8363 109.334 98.8363 109.276C98.8345 109.2 98.8026 109.127 98.7473 109.073C98.6921 109.02 98.6179 108.99 98.5411 108.991L98.5444 108.985ZM103.271 108.985C103.213 108.985 103.157 109.002 103.109 109.034C103.061 109.066 103.023 109.111 103.001 109.165C102.979 109.218 102.973 109.277 102.985 109.333C102.996 109.39 103.024 109.442 103.064 109.483C103.105 109.524 103.157 109.552 103.214 109.563C103.271 109.574 103.329 109.568 103.383 109.546C103.436 109.524 103.481 109.487 103.514 109.439C103.546 109.391 103.563 109.334 103.563 109.276C103.561 109.2 103.529 109.127 103.474 109.073C103.419 109.02 103.344 108.99 103.268 108.991L103.271 108.985ZM107.994 108.985C107.936 108.985 107.88 109.002 107.832 109.034C107.784 109.066 107.746 109.111 107.724 109.165C107.702 109.218 107.696 109.277 107.708 109.333C107.719 109.39 107.747 109.442 107.788 109.483C107.828 109.524 107.88 109.552 107.937 109.563C107.994 109.574 108.052 109.568 108.106 109.546C108.159 109.524 108.205 109.487 108.237 109.439C108.269 109.391 108.286 109.334 108.286 109.276C108.284 109.2 108.252 109.127 108.197 109.073C108.142 109.02 108.068 108.99 107.991 108.991L107.994 108.985ZM96.186 105.957C96.1274 105.956 96.0698 105.973 96.0208 106.005C95.9718 106.038 95.9334 106.084 95.9107 106.138C95.8879 106.192 95.8818 106.252 95.8931 106.309C95.9044 106.367 95.9326 106.42 95.974 106.461C96.0155 106.503 96.0684 106.531 96.126 106.542C96.1836 106.553 96.2432 106.547 96.2972 106.524C96.3513 106.502 96.3974 106.463 96.4296 106.414C96.4618 106.365 96.4786 106.308 96.478 106.249C96.4771 106.211 96.4687 106.173 96.4532 106.138C96.4378 106.103 96.4155 106.071 96.3878 106.045C96.3601 106.018 96.3274 105.997 96.2917 105.983C96.2559 105.969 96.2178 105.963 96.1795 105.964L96.186 105.957ZM100.909 105.957C100.851 105.957 100.794 105.975 100.745 106.007C100.696 106.04 100.658 106.086 100.636 106.14C100.614 106.194 100.608 106.254 100.62 106.311C100.632 106.368 100.66 106.421 100.702 106.462C100.743 106.503 100.796 106.531 100.854 106.542C100.911 106.553 100.971 106.547 101.024 106.524C101.078 106.501 101.124 106.463 101.156 106.414C101.188 106.365 101.205 106.308 101.204 106.249C101.204 106.21 101.195 106.172 101.179 106.137C101.164 106.102 101.141 106.07 101.113 106.043C101.085 106.017 101.052 105.996 101.016 105.982C100.98 105.969 100.941 105.962 100.903 105.964L100.909 105.957ZM105.636 105.957C105.577 105.956 105.52 105.973 105.47 106.005C105.421 106.038 105.383 106.084 105.36 106.138C105.338 106.192 105.331 106.252 105.343 106.309C105.354 106.367 105.382 106.42 105.424 106.461C105.465 106.503 105.518 106.531 105.576 106.542C105.633 106.553 105.693 106.547 105.747 106.524C105.801 106.502 105.847 106.463 105.879 106.414C105.911 106.365 105.928 106.308 105.928 106.249C105.927 106.21 105.918 106.171 105.902 106.135C105.885 106.099 105.862 106.066 105.833 106.04C105.804 106.013 105.77 105.992 105.732 105.979C105.695 105.966 105.655 105.961 105.616 105.964L105.636 105.957ZM110.359 105.957C110.3 105.957 110.243 105.975 110.195 106.007C110.146 106.04 110.108 106.086 110.086 106.14C110.064 106.194 110.058 106.254 110.07 106.311C110.081 106.368 110.11 106.421 110.151 106.462C110.193 106.503 110.246 106.531 110.303 106.542C110.361 106.553 110.42 106.547 110.474 106.524C110.528 106.501 110.574 106.463 110.606 106.414C110.638 106.365 110.655 106.308 110.654 106.249C110.653 106.21 110.645 106.172 110.629 106.137C110.613 106.102 110.591 106.07 110.563 106.043C110.535 106.017 110.502 105.996 110.466 105.982C110.429 105.969 110.391 105.962 110.352 105.964L110.359 105.957ZM96.186 112.278C96.1274 112.277 96.0698 112.294 96.0208 112.326C95.9718 112.358 95.9334 112.404 95.9107 112.458C95.8879 112.512 95.8818 112.572 95.8931 112.63C95.9044 112.687 95.9326 112.74 95.974 112.782C96.0155 112.823 96.0684 112.851 96.126 112.863C96.1836 112.874 96.2432 112.868 96.2972 112.845C96.3513 112.822 96.3974 112.784 96.4296 112.735C96.4618 112.686 96.4786 112.628 96.478 112.57C96.4771 112.531 96.4687 112.493 96.4532 112.458C96.4378 112.423 96.4155 112.392 96.3878 112.365C96.3601 112.339 96.3274 112.318 96.2917 112.304C96.2559 112.29 96.2178 112.283 96.1795 112.284L96.186 112.278ZM100.909 112.278C100.851 112.278 100.794 112.295 100.745 112.328C100.696 112.36 100.658 112.407 100.636 112.461C100.614 112.515 100.608 112.574 100.62 112.632C100.632 112.689 100.66 112.742 100.702 112.783C100.743 112.824 100.796 112.852 100.854 112.863C100.911 112.874 100.971 112.867 101.024 112.845C101.078 112.822 101.124 112.783 101.156 112.734C101.188 112.686 101.205 112.628 101.204 112.57C101.204 112.531 101.195 112.493 101.179 112.458C101.164 112.422 101.141 112.39 101.113 112.364C101.085 112.337 101.052 112.317 101.016 112.303C100.98 112.289 100.941 112.283 100.903 112.284L100.909 112.278Z" fill="#87C159"/>
<path d="M97.8883 102.766C99.8235 102.326 101.732 101.782 103.641 101.237C105.55 100.693 107.463 100.148 109.358 99.5546C110.428 99.2266 111.5 98.8986 112.56 98.5148C112.589 98.5148 112.579 98.4558 112.56 98.4623C110.628 98.8986 108.712 99.4463 106.807 99.9678C104.901 100.489 102.982 101.057 101.08 101.628C100.007 101.956 98.9379 102.284 97.8785 102.667C97.8161 102.687 97.8325 102.779 97.8883 102.766Z" fill="#263238"/>
<path d="M97.9375 98.6362C97.6686 98.6624 97.3996 98.7182 97.1339 98.7706C97.1136 98.7765 97.0952 98.7874 97.0803 98.8023C97.0654 98.8172 97.0545 98.8356 97.0486 98.8559C96.7534 99.8662 96.5435 100.906 96.3336 101.936C96.1237 102.966 95.9433 103.969 95.776 104.993C95.6842 105.541 95.6054 106.095 95.5431 106.633C95.2085 107.302 95.0047 108.029 94.9429 108.775C94.9429 108.783 94.9463 108.792 94.9525 108.798C94.9586 108.804 94.967 108.807 94.9757 108.807C94.9844 108.807 94.9927 108.804 94.9989 108.798C95.005 108.792 95.0085 108.783 95.0085 108.775C95.0907 108.113 95.2617 107.465 95.5169 106.849C95.3512 108.2 95.3876 109.567 95.6251 110.907C95.2971 108.906 95.7891 106.82 96.1171 104.852C96.2811 103.868 96.4681 102.884 96.6616 101.9C96.8551 100.916 97.0814 99.9482 97.2618 98.9674C97.4914 98.8789 97.7243 98.7936 97.9441 98.6886C97.9478 98.6851 97.9507 98.6807 97.9524 98.6759C97.9541 98.671 97.9547 98.6658 97.9541 98.6607C97.9535 98.6556 97.9516 98.6507 97.9487 98.6465C97.9459 98.6422 97.942 98.6387 97.9375 98.6362Z" fill="#263238"/>
<path d="M80.36 81.7376C80.2059 82.2952 77.3785 85.854 74.807 85.6375C73.9706 85.5654 74.151 80.9766 74.151 80.9766L74.0887 80.6486L73.2031 75.8631L78.907 72.488L79.7303 72.0419C79.7303 72.0419 79.8877 73.3539 80.0583 75.0234C80.0583 75.0989 80.0747 75.1743 80.0812 75.2563C80.0878 75.3383 80.1075 75.44 80.114 75.5253C80.1468 75.7713 80.1731 76.0238 80.1993 76.2764C80.219 76.4666 80.2354 76.6536 80.2485 76.8537C80.2616 77.0538 80.2813 77.2538 80.2977 77.4539C80.4152 78.8788 80.4361 80.3099 80.36 81.7376Z" fill="#F7A9A0"/>
<path d="M80.0648 75.0136C79.5351 76.3286 78.7256 77.5126 77.6925 78.4834C76.6594 79.4542 75.4274 80.1885 74.0821 80.6355L73.1965 75.85L78.907 72.488L79.7302 72.0419C79.7302 72.0419 79.8877 73.3605 80.0648 75.0136Z" fill="#263238"/>
<path d="M67.1777 68.1059C66.2954 76.6044 71.2875 78.0935 73.121 78.2739C74.784 78.4445 80.4715 78.8151 82.2263 70.4511C83.9811 62.0871 80.3075 58.9941 76.5224 58.4004C72.7373 57.8067 68.06 59.6074 67.1777 68.1059Z" fill="#F7A9A0"/>
<path d="M70.0411 66.1314C70.2368 66.1183 70.4317 66.0953 70.625 66.0625C70.8344 66.0668 71.0395 66.0022 71.2088 65.8788C71.2554 65.83 71.2843 65.7669 71.2909 65.6997C71.2974 65.6325 71.2812 65.5651 71.2449 65.5082C71.1555 65.4085 71.0414 65.3342 70.9142 65.2928C70.7869 65.2513 70.6509 65.2441 70.52 65.272C70.245 65.2871 69.9854 65.404 69.7919 65.6C69.7541 65.6478 69.7303 65.7052 69.7233 65.7657C69.7163 65.8263 69.7263 65.8876 69.7522 65.9428C69.7781 65.9979 69.8188 66.0448 69.8699 66.0781C69.9209 66.1114 69.9802 66.1299 70.0411 66.1314Z" fill="#263238"/>
<path d="M76.1354 66.0854C75.9432 66.0419 75.7537 65.9871 75.5679 65.9214C75.3606 65.8912 75.1692 65.7932 75.0235 65.6426C74.9867 65.5871 74.9693 65.5209 74.974 65.4545C74.9788 65.388 75.0054 65.325 75.0497 65.2753C75.1533 65.1897 75.2778 65.1334 75.4104 65.112C75.543 65.0907 75.6789 65.1052 75.8041 65.1539C76.0702 65.2149 76.304 65.3728 76.4601 65.5967C76.4904 65.6496 76.5054 65.7098 76.5034 65.7707C76.5014 65.8316 76.4825 65.8907 76.4488 65.9414C76.4151 65.9922 76.3679 66.0325 76.3125 66.058C76.2572 66.0834 76.1958 66.0929 76.1354 66.0854Z" fill="#263238"/>
<path d="M74.6168 68.6373C74.6168 68.6176 74.6594 68.6701 74.6561 68.693C74.5807 69.2703 74.5938 69.946 75.0989 70.1887C75.0989 70.1887 75.0989 70.2248 75.0989 70.2215C74.456 70.0674 74.456 69.1719 74.6168 68.6373Z" fill="#263238"/>
<path d="M75.194 68.083C76.1321 68.1059 76.0206 69.9788 75.1514 69.9624C74.2822 69.946 74.4068 68.0666 75.194 68.083Z" fill="#263238"/>
<path d="M75.5548 68.2043C75.7122 68.3191 75.8631 68.5159 76.0566 68.5487C76.2502 68.5815 76.4699 68.3978 76.6306 68.2207C76.647 68.2207 76.6602 68.2207 76.6602 68.2437C76.6438 68.6045 76.4863 68.9653 76.096 68.9948C75.7057 69.0243 75.5089 68.693 75.44 68.3388C75.44 68.2535 75.4925 68.1584 75.5548 68.2043Z" fill="#263238"/>
<path d="M71.0776 68.224C71.0776 68.201 71.0284 68.247 71.0284 68.2699C71.0087 68.8538 70.8873 69.5163 70.3494 69.6738C70.3297 69.6738 70.3297 69.7066 70.3494 69.7066C70.9989 69.6442 71.1497 68.7652 71.0776 68.224Z" fill="#263238"/>
<path d="M70.5987 67.568C69.6705 67.4335 69.4704 69.3031 70.3298 69.4278C71.1891 69.5524 71.3794 67.6828 70.5987 67.568Z" fill="#263238"/>
<path d="M70.192 67.65C70.0313 67.732 69.864 67.896 69.6902 67.8894C69.5163 67.8829 69.3622 67.6631 69.2441 67.4565C69.2441 67.4335 69.2178 67.4565 69.2146 67.4729C69.1654 67.8271 69.2441 68.2142 69.5786 68.3191C69.9132 68.4241 70.1494 68.1322 70.2707 67.7878C70.3002 67.7222 70.2609 67.6172 70.192 67.65Z" fill="#263238"/>
<path d="M73.6983 73.1637C73.5573 73.2982 73.4162 73.4917 73.203 73.4917C72.9865 73.4864 72.7738 73.4338 72.5798 73.3375C72.5759 73.3368 72.5719 73.337 72.5681 73.3383C72.5643 73.3396 72.5609 73.3418 72.5583 73.3448C72.5556 73.3478 72.5538 73.3514 72.553 73.3553C72.5522 73.3592 72.5524 73.3632 72.5536 73.367C72.6345 73.4835 72.7457 73.5757 72.8752 73.6335C73.0047 73.6913 73.1476 73.7126 73.2883 73.695C73.4077 73.6663 73.5159 73.6026 73.5989 73.512C73.6819 73.4214 73.7359 73.3081 73.7541 73.1866C73.7639 73.144 73.718 73.144 73.6983 73.1637Z" fill="#263238"/>
<path d="M71.4187 70.8939C71.4187 70.8939 71.2383 71.7533 71.2088 72.1633C71.2088 72.1994 71.3039 72.2256 71.4417 72.2453C71.4417 72.2453 71.4417 72.2453 71.4581 72.2453C71.8045 72.3345 72.1689 72.3263 72.511 72.2215C72.853 72.1167 73.1595 71.9195 73.3966 71.6516C73.4294 71.6155 73.3802 71.5696 73.3408 71.5926C72.794 71.9112 72.1593 72.0458 71.5303 71.9763C71.5073 71.8615 71.8878 70.5167 71.8255 70.5069C71.5055 70.5116 71.1876 70.5602 70.8808 70.6512C71.2088 68.8538 71.8156 67.1186 72.1108 65.3245C72.1152 65.311 72.114 65.2963 72.1075 65.2837C72.1011 65.2711 72.0899 65.2616 72.0764 65.2572C72.0629 65.2529 72.0482 65.2541 72.0356 65.2605C72.023 65.267 72.0135 65.2782 72.0091 65.2917C71.2383 67.0596 70.8218 69.1227 70.438 70.9726C70.3855 71.2022 71.2515 70.953 71.4187 70.8939Z" fill="#263238"/>
<path d="M71.5827 72.0944C71.785 72.435 72.072 72.7175 72.4158 72.9144C72.6062 73.0176 72.8247 73.0567 73.039 73.0259C73.5081 72.9603 73.5671 72.547 73.5245 72.1797C73.5011 71.9858 73.4549 71.7953 73.3867 71.6122C72.8522 71.9613 72.2201 72.1303 71.5827 72.0944Z" fill="#263238"/>
<path d="M72.4158 72.9144C72.6062 73.0176 72.8247 73.0567 73.039 73.0259C73.5081 72.9603 73.5671 72.547 73.5245 72.1797C73.2842 72.1607 73.0444 72.2228 72.8435 72.3559C72.6426 72.4891 72.492 72.6857 72.4158 72.9144Z" fill="#FF9CBD"/>
<path d="M81.8721 69.9591C79.9041 69.8181 80.1829 66.7316 80.1829 66.7316C80.1829 66.7316 77.9787 66.3478 78.1132 62.753C78.1132 62.753 76.8668 64.8292 73.823 65.0194C73.167 65.0621 75.463 63.5861 75.463 63.5861C75.463 63.5861 72.3864 65.6 67.7124 64.3306C67.3844 64.2421 68.8407 59.3844 72.7045 57.9806C76.5684 56.5767 79.8451 57.8264 81.9541 60.3651C81.9541 60.3651 84.5781 61.8477 84.6732 64.4586C84.7683 67.0694 82.6331 70.0149 81.8721 69.9591Z" fill="#263238"/>
<path d="M83.3842 68.6471C84.036 67.5732 84.4139 66.3556 84.4848 65.1013C84.5558 63.8471 84.3175 62.5946 83.7909 61.4541C81.9935 57.4459 75.545 55.8551 71.2908 58.6923C71.2908 58.6923 78.6052 57.3803 81.0784 60.68C83.5515 63.9797 83.3842 68.6471 83.3842 68.6471Z" fill="#F4D03F"/>
<path d="M80.7634 70.7824C80.7634 70.7824 82.6724 68.1584 83.8696 68.8144C85.0668 69.4704 83.6039 73.3441 82.1739 73.8459C81.9952 73.9235 81.8027 73.964 81.6079 73.9652C81.4131 73.9664 81.2202 73.9281 81.0406 73.8528C80.861 73.7774 80.6985 73.6664 80.563 73.5266C80.4274 73.3867 80.3215 73.2209 80.2518 73.039L80.7634 70.7824Z" fill="#F7A9A0"/>
<path d="M83.4235 69.923C83.4465 69.923 83.4497 69.9526 83.4235 69.9624C82.4198 70.3462 81.8819 71.2744 81.4981 72.2125C81.7999 71.8517 82.2066 71.6549 82.6953 72.0157C82.7216 72.0354 82.6953 72.0747 82.6658 72.0682C82.4915 72.009 82.303 72.0056 82.1266 72.0585C81.9503 72.1114 81.7948 72.218 81.6818 72.3634C81.4955 72.6062 81.335 72.8679 81.2029 73.144C81.1537 73.2326 80.993 73.1834 81.0291 73.0817V73.0587C81.0389 71.7894 82.0557 70.028 83.4235 69.923Z" fill="#263238"/>
</svg>
